<svg xmlns="http://www.w3.org/2000/svg" viewBox="0 0 87 94"><g fill="#5CC4CA"><path d="M86.2 31.2c-.5-4.8-4.1-11.1-7.9-14 0 0-5.8-4.3-13-8.5C58 4.4 51.4 1.5 51.4 1.5 49.2.5 46.3 0 43.5 0c-2.8 0-5.8.5-7.9 1.5 0 0-6.5 2.9-13.8 7.2-7.2 4.3-13 8.5-13 8.5-3.9 2.9-7.4 9.2-7.9 14 0 0-.8 7.2-.8 15.8 0 8.5.8 15.8.8 15.8.5 4.8 4.1 11.1 7.9 14 0 0 5.8 4.3 13 8.6s13.8 7.2 13.8 7.2c2.2 1 5.1 1.5 7.9 1.5 2.8 0 5.8-.5 7.9-1.5 0 0 6.5-2.9 13.8-7.2 7.2-4.3 13-8.6 13-8.6 3.9-2.9 7.4-9.2 7.9-14 0 0 .8-7.2.8-15.8.1-8.5-.7-15.8-.7-15.8zm-4 31c-.4 3.8-3.4 9-6.3 11.2-.1 0-5.7 4.2-12.6 8.3-6.9 4.1-13.3 7-13.4 7-1.6.7-3.9 1.1-6.3 1.1s-4.7-.4-6.3-1.1c-.1 0-6.4-2.9-13.4-7-6.9-4.1-12.6-8.3-12.6-8.3-3-2.2-5.9-7.5-6.3-11.2-.3 0-1-7.1-1-15.2s.7-15.3.7-15.3c.4-3.8 3.4-9 6.3-11.2.1 0 5.7-4.2 12.6-8.3s13.3-7 13.4-7c1.7-.8 4-1.2 6.4-1.2 2.4 0 4.7.4 6.3 1.1.1 0 6.4 2.9 13.4 7 6.9 4.1 12.6 8.3 12.6 8.3 3 2.2 5.9 7.5 6.3 11.2 0 .1.7 7.1.7 15.3.3 8.2-.5 15.3-.5 15.3z"/><path d="M55 33.4c-3 0-5.7.8-8.1 2.3-3.2-3.8-8-6.3-13.3-6.3-9.5 0-17.3 7.8-17.3 17.3S24.1 64 33.6 64c4 0 7.7-1.4 10.6-3.7C47 63 50.8 64.6 55 64.6c8.6 0 15.6-7 15.6-15.6s-7-15.6-15.6-15.6zM44.6 54.1c-.8-1.6-1.2-3.3-1.2-5.1 0-2.7 1-5.3 2.6-7.3.6 1.5 1 3.2 1 4.9-.1 2.8-.9 5.3-2.4 7.5zm-24.4-7.4c0-7.3 6-13.3 13.3-13.3 4.1 0 7.8 1.9 10.2 4.8C41 41 39.3 44.8 39.3 49c0 3 .9 5.8 2.3 8.2-2.3 1.7-5.1 2.8-8.1 2.8-7.2-.1-13.3-6.1-13.3-13.3zM55 60.5c-3.1 0-5.8-1.2-7.9-3.1 2.4-3 3.8-6.7 3.8-10.8 0-2.8-.7-5.3-1.8-7.7 1.7-1 3.7-1.6 5.9-1.6 6.4 0 11.6 5.2 11.6 11.6S61.4 60.5 55 60.5z"/></g></svg>