<svg xmlns="http://www.w3.org/2000/svg" viewBox="0 0 87 94"><g fill="#2E7DAF"><path d="M43.5 26.2c-11.6 0-21 9.4-21 21s9.4 21 21 21 21-9.4 21-21-9.4-21-21-21zm0 4c7 0 13.1 4.3 15.7 10.4l-8.6 2.8c-1.4-2.8-4.2-4.7-7.5-4.7-3.2 0-6 1.8-7.4 4.4l-7.8-2.6c2.5-6 8.5-10.3 15.6-10.3zM43 51.5c-2.5 0-4.4-2-4.4-4.4 0-2.5 2-4.4 4.4-4.4 2.5 0 4.4 2 4.4 4.4 0 2.4-2 4.4-4.4 4.4zm-16.5-4.4c0-.9.1-1.8.2-2.7l7.9 2.6v.1c0 4 2.8 7.4 6.6 8.2v8.6c-8.3-1.1-14.7-8.2-14.7-16.8zM45.2 64v-8.8c3.5-1 6.2-4.2 6.2-8l8.8-2.9c.1.9.2 1.8.2 2.8.1 8.8-6.6 16-15.2 16.9z"/><path d="M86.2 31.2c-.5-4.8-4.1-11.1-7.9-14 0 0-5.8-4.3-13-8.5C58 4.4 51.4 1.5 51.4 1.5 49.2.5 46.3 0 43.5 0c-2.9 0-5.8.5-7.9 1.5 0 0-6.5 2.9-13.8 7.2-7.2 4.3-13 8.5-13 8.5-3.9 2.9-7.4 9.2-7.9 14 0 0-.8 7.2-.8 15.8 0 8.5.8 15.8.8 15.8.5 4.8 4.1 11.1 7.9 14 0 0 5.8 4.3 13 8.6s13.8 7.2 13.8 7.2c2.2 1 5.1 1.5 7.9 1.5 2.9 0 5.8-.5 7.9-1.5 0 0 6.5-2.9 13.8-7.2 7.2-4.3 13-8.6 13-8.6 3.9-2.9 7.4-9.2 7.9-14 0 0 .8-7.2.8-15.8.1-8.5-.7-15.8-.7-15.8zm-4 31c-.4 3.8-3.4 9-6.3 11.2-.1 0-5.7 4.2-12.6 8.3-6.9 4.1-13.3 7-13.4 7-1.6.7-3.9 1.1-6.3 1.1s-4.7-.4-6.3-1.1c-.1 0-6.4-2.9-13.4-7-6.9-4.1-12.6-8.3-12.6-8.3-3-2.2-5.9-7.5-6.3-11.2-.3 0-1-7.1-1-15.2s.7-15.3.7-15.3c.4-3.8 3.4-9 6.3-11.2.1 0 5.7-4.2 12.6-8.3s13.3-7 13.4-7c1.7-.8 4-1.2 6.4-1.2 2.4 0 4.7.4 6.3 1.1.1 0 6.4 2.9 13.4 7 6.9 4.1 12.6 8.3 12.6 8.3 3 2.2 6 7.5 6.3 11.2 0 .1.7 7.1.7 15.3.3 8.2-.5 15.3-.5 15.3z"/><path d="M43 19.1c-15.5 0-28.1 12.6-28.1 28 0 15.5 12.6 28 28.1 28 15.5 0 28.1-12.6 28.1-28s-12.6-28-28.1-28zm0 52c-13.3 0-24.1-10.8-24.1-24 0-13.3 10.8-24 24.1-24s24.1 10.8 24.1 24-10.9 24-24.1 24z"/></g></svg>