<svg xmlns="http://www.w3.org/2000/svg" viewBox="0 0 87 94"><g fill="#F28230"><path d="M86.2 31.2c-.5-4.8-4.1-11.1-7.9-14 0 0-5.8-4.3-13-8.5C58 4.4 51.4 1.5 51.4 1.5 49.2.5 46.3 0 43.5 0c-2.9 0-5.8.5-7.9 1.5 0 0-6.5 2.9-13.8 7.2-7.2 4.3-13 8.5-13 8.5-3.9 2.9-7.4 9.2-7.9 14 0 0-.8 7.2-.8 15.8s.8 15.8.8 15.8c.5 4.8 4.1 11.1 7.9 14 0 0 5.8 4.3 13 8.6s13.8 7.2 13.8 7.2c2.2 1 5.1 1.5 7.9 1.5 2.9 0 5.8-.5 7.9-1.5 0 0 6.5-2.9 13.8-7.2 7.2-4.3 13-8.6 13-8.6 3.9-2.9 7.4-9.2 7.9-14 0 0 .8-7.2.8-15.8s-.7-15.8-.7-15.8zm-4 31c-.4 3.8-3.4 9-6.3 11.2-.1 0-5.7 4.2-12.6 8.3-6.9 4.1-13.3 7-13.4 7-1.6.7-3.9 1.1-6.3 1.1s-4.7-.4-6.3-1.1c-.1 0-6.4-2.9-13.4-7-6.9-4.1-12.6-8.2-12.6-8.3-3-2.2-6-7.5-6.4-11.2-.2-.1-.9-7.1-.9-15.2s.7-15.3.7-15.3c.4-3.8 3.4-9.1 6.4-11.3.1 0 5.7-4.2 12.6-8.3s13.3-7 13.4-7c1.7-.7 4-1.1 6.4-1.1 2.4 0 4.7.4 6.3 1.1.1 0 6.4 2.9 13.4 7 6.9 4.1 12.6 8.3 12.6 8.3 3 2.2 5.9 7.5 6.3 11.2 0 .1.7 7.1.7 15.3s-.6 15.2-.6 15.3z"/><path d="M64.9 36.9c-.1-1.6-.8-3.1-2-4-1-.8-2.2-1.2-3.6-1.2-2 0-4 .9-5.5 2.4-2.1 2.1-4 3.9-5.9 5.3-.6-1.5-1.2-3.4-1.1-4.4.1-.9.3-1.8.6-2.8.7-3.1 1.4-6.5.2-9.3-1.2-2.9-3.7-5.4-6.9-6.8-3.3-1.5-6.9-1.6-9.9-.3-3.2 1.4-5.6 3.8-6.8 6.9-1.2 3.2-1.1 6.8.3 10.1 1.1 2.6 3.9 4.5 6.3 6.3.7.5 1.3.9 1.9 1.4.8.7 1.9 2.6 2.6 4.2-2.1.3-4.3.4-6.9.4-3.7 0-6.8 2.5-7.2 5.7-.2 1.5.4 3 1.5 4.2 1.4 1.6 3.5 2.4 5.8 2.4h.1c3.7 0 7.3-.5 10.9-1.4 0 .1-.1.1-.1.2-2.2 4.1-2.2 9.1.2 13.1 1.8 3.1 4.7 5.2 8.1 6.1 1.1.3 2.2.4 3.4.4 2.3 0 4.6-.6 6.7-1.8 3.1-1.8 5.2-4.7 6.1-8.1.9-3.4.4-7-1.4-10.1-1.8-3.1-4.8-5.3-8.3-6.2 3.1-2 6-4.3 8.6-6.9 1.6-1.5 2.4-3.7 2.3-5.8zm-29.9.5c-.6-.5-1.3-1-2.1-1.5-1.9-1.3-4.3-3-4.9-4.6-1-2.4-1.1-4.9-.3-7.1.8-2.1 2.5-3.8 4.7-4.7 2-.9 4.4-.8 6.7.3 2.2 1 4 2.8 4.8 4.7.7 1.7.1 4.4-.5 6.9-.2 1-.5 2.1-.6 3.1-.4 2.5 1 5.9 1.6 7.2-1.7.9-3.5 1.7-5.4 2.2-.5-1.5-2-5-4-6.5zm13.5 15.3l1.4 3.3c.8 1.8.4 3.1.2 3.3l-1.5.6c-.3 0-1.5-.6-2.2-2.4L45 54.2c1.1-.5 2.3-1 3.5-1.5zm10.3 5.1c1.3 2.1 1.6 4.6 1 7-.6 2.4-2.1 4.4-4.3 5.7-2.1 1.3-4.6 1.6-7 1-2.4-.6-4.4-2.1-5.7-4.3-1.6-2.7-1.7-5.9-.3-8.7l.2.5c.7 1.6 1.7 2.9 2.9 3.8 1 .7 2 1 3 1 .5 0 1.1-.1 1.6-.3l1.5-.6c1.4-.6 2.4-2 2.6-3.8.2-1.5 0-3.2-.7-4.7l-.4-.8c2.3.6 4.4 2.1 5.6 4.2zm.9-17.8c-8.2 8.4-19.6 13.2-31.4 13.4v2-2c-1.2 0-2.2-.4-2.8-1.1-.2-.2-.5-.6-.4-1.1.1-1.1 1.5-2.1 3.2-2.1C41.1 48.9 48 46 56.8 37c.8-.8 1.7-1.2 2.6-1.2.4 0 .8.1 1.1.3.4.3.5.8.5 1.1 0 .9-.5 2-1.3 2.8z"/><path d="M32 21.9c-.4.2-1.6.9-2.5 3-.7 1.8-.4 3.6-.3 3.8.2.9 1 1.5 1.9 1.5h.4c1.1-.2 1.8-1.3 1.5-2.4 0-.2-.1-.9.1-1.4.3-.6.5-.9.6-.9.9-.5 1.2-1.6.8-2.5-.3-1.1-1.5-1.6-2.5-1.1z"/></g></svg>