<svg xmlns="http://www.w3.org/2000/svg" viewBox="0 0 87 94"><g fill="#F28230"><path d="M86.2 31.2c-.5-4.8-4.1-11.1-7.9-14 0 0-5.8-4.3-13-8.5C58 4.4 51.4 1.5 51.4 1.5 49.2.5 46.3 0 43.5 0c-2.9 0-5.8.5-7.9 1.5 0 0-6.5 2.9-13.8 7.2-7.2 4.3-13 8.5-13 8.5-3.9 2.9-7.4 9.2-7.9 14 0 0-.8 7.2-.8 15.8 0 8.5.8 15.8.8 15.8.5 4.8 4.1 11.1 7.9 14 0 0 5.8 4.3 13 8.6s13.8 7.2 13.8 7.2c2.2 1 5.1 1.5 7.9 1.5 2.9 0 5.8-.5 7.9-1.5 0 0 6.5-2.9 13.8-7.2 7.2-4.3 13-8.6 13-8.6 3.9-2.9 7.4-9.2 7.9-14 0 0 .8-7.2.8-15.8 0-8.5-.7-15.8-.7-15.8zm-4 31c-.4 3.8-3.4 9-6.3 11.2-.1 0-5.7 4.2-12.6 8.3-6.9 4.1-13.3 7-13.4 7-1.6.7-3.9 1.1-6.3 1.1s-4.7-.4-6.3-1.1c-.1 0-6.4-2.9-13.4-7-6.9-4.1-12.6-8.3-12.6-8.3-3-2.2-5.9-7.5-6.3-11.2 0-.1-.7-7.1-.7-15.3S5 31.6 5 31.6c.4-3.8 3.4-9 6.3-11.2.1 0 5.7-4.2 12.6-8.3s13.3-7 13.4-7C38.7 4.4 41 4 43.4 4s4.7.4 6.3 1.1c.1 0 6.4 2.9 13.4 7 6.9 4.1 12.6 8.3 12.6 8.3 3 2.2 5.9 7.5 6.3 11.2 0 .1.7 7.1.7 15.3.2 8.2-.5 15.3-.5 15.3z"/><path d="M68.3 29.2H18.6c-1.1 0-2 .9-2 2v31.5c0 1.1.9 2 2 2h49.6c1.1 0 2-.9 2-2V31.2c.1-1.1-.8-2-1.9-2zm-7.9 20.9c0 1.9-1.5 3.4-3.4 3.4-.5 0-.9-.1-1.3-.3-1.3-.5-2.1-1.8-2.1-3.2 0-1.9 1.5-3.4 3.4-3.4 1.9.2 3.4 1.6 3.4 3.5zm-4.5 7.4c.4.1.7.1 1.1.1.4 0 .7 0 1.1-.1v3.2H56v-3.2h-.1zM57 42.8c-.4 0-.7 0-1.1.1v-9.6H58v9.6c-.3-.1-.7-.1-1-.1zm-36.4-9.6h31.3v11.5c-1.5 1.4-2.4 3.3-2.4 5.4 0 2.1.9 4 2.4 5.4v5.1H20.6V33.2zm45.7 27.4H62v-5.1c1.5-1.4 2.4-3.3 2.4-5.4 0-2.1-.9-4.1-2.4-5.4V33.2h4.2v27.4z"/><path d="M43.4 38H25.9c-1.1 0-2 .9-2 2s.9 2 2 2h17.6c1.1 0 2-.9 2-2-.1-1.1-1-2-2.1-2zM43.4 45.1H25.9c-1.1 0-2 .9-2 2s.9 2 2 2h17.6c1.1 0 2-.9 2-2-.1-1.1-1-2-2.1-2zM43.4 52.2H25.9c-1.1 0-2 .9-2 2s.9 2 2 2h17.6c1.1 0 2-.9 2-2-.1-1.1-1-2-2.1-2z"/></g></svg>