<svg xmlns="http://www.w3.org/2000/svg" viewBox="0 0 87 94"><g fill="#F28230"><path d="M86.2 31.2c-.5-4.8-4.1-11.1-7.9-14 0 0-5.8-4.3-13-8.5C58 4.4 51.4 1.5 51.4 1.5 49.2.5 46.3 0 43.5 0c-2.9 0-5.8.5-7.9 1.5 0 0-6.5 2.9-13.8 7.2-7.2 4.3-13 8.5-13 8.5-3.9 2.9-7.4 9.2-7.9 14 0 0-.8 7.2-.8 15.8 0 8.5.8 15.8.8 15.8.5 4.8 4.1 11.1 7.9 14 0 0 5.8 4.3 13 8.6s13.8 7.2 13.8 7.2c2.2 1 5.1 1.5 7.9 1.5 2.9 0 5.8-.5 7.9-1.5 0 0 6.5-2.9 13.8-7.2 7.2-4.3 13-8.6 13-8.6 3.9-2.9 7.4-9.2 7.9-14 0 0 .8-7.2.8-15.8 0-8.5-.7-15.8-.7-15.8zm-4 31c-.4 3.8-3.4 9-6.3 11.2-.1 0-5.7 4.2-12.6 8.3-6.9 4.1-13.3 7-13.4 7-1.6.7-3.9 1.1-6.3 1.1s-4.7-.4-6.3-1.1c-.1 0-6.4-2.9-13.4-7-6.9-4.1-12.6-8.3-12.6-8.3-3-2.2-5.9-7.5-6.3-11.2 0-.1-.7-7.1-.7-15.3S5 31.6 5 31.6c.4-3.8 3.4-9 6.3-11.2.1 0 5.7-4.2 12.6-8.3 6.9-4.1 13.3-7 13.4-7 1.6-.7 3.9-1.1 6.3-1.1s4.7.4 6.3 1.1c.1 0 6.4 2.9 13.4 7 6.9 4.1 12.6 8.3 12.6 8.3 3 2.2 5.9 7.5 6.3 11.2 0 .1.7 7.1.7 15.3s-.7 15.2-.7 15.3z"/><path d="M60 32.1h-2.2V21.5c0-.8-.5-1.6-1.3-1.9-.3-.2-.6-.2-.9-.2l-21.8.3c-4.5.1-8.1 3.8-8.1 8.4l.1 39.6c0 1.6 1.4 2.9 3 2.9H60c1.6 0 3-1.3 3-2.9V35c0-1.6-1.3-2.9-3-2.9zm-26.1-8.4l19.9-.3v8.7H34.1c-2.4 0-4.2-1.8-4.3-4.1 0-2.4 1.8-4.3 4.1-4.3zM59 66.5H29.9V34.9c1.2.7 2.7 1.1 4.2 1.1H59v30.5z"/><path d="M50.6 48.5h-4.2v-4.2c0-1.1-.9-2-2-2s-2 .9-2 2v4.2h-4.1c-1.1 0-2 .9-2 2s.9 2 2 2h4.1v4.2c0 1.1.9 2 2 2s2-.9 2-2v-4.2h4.2c1.1 0 2-.9 2-2s-.9-2-2-2zM35.3 30.1h14.3c1.1 0 2-.9 2-2s-.9-2-2-2H35.3c-1.1 0-2 .9-2 2s.9 2 2 2z"/></g></svg>