<svg xmlns="http://www.w3.org/2000/svg" viewBox="0 0 87 94"><g fill="#882C80"><path d="M57.6 42h-5c-.7 0-1.4.4-1.8.9-.4.4-.6 1-.6 1.6V58c-.9.2-1.6 1-1.6 2s.7 1.8 1.6 2v.7c0 1.1.9 2 2 2s2-.9 2-2v-.6h4.2c1.1 0 2-.9 2-2s-.9-2-2-2h-4.2v-1.4h3.4c4.1 0 7.4-3.3 7.4-7.4S61.7 42 57.6 42zm0 10.7h-3.4V46h3.4c1.9 0 3.4 1.5 3.4 3.4 0 1.8-1.5 3.3-3.4 3.3z"/><path d="M86.2 31.2c-.5-4.8-4.1-11.1-7.9-14 0 0-5.8-4.3-13-8.5C58 4.4 51.4 1.5 51.4 1.5 49.2.5 46.3 0 43.5 0c-2.9 0-5.8.5-7.9 1.5 0 0-6.5 2.9-13.8 7.2-7.2 4.3-13 8.5-13 8.5-3.9 2.9-7.4 9.2-7.9 14 0 0-.8 7.2-.8 15.8 0 8.5.8 15.8.8 15.8.5 4.8 4.1 11.1 7.9 14 0 0 5.8 4.3 13 8.6s13.8 7.2 13.8 7.2c2.2 1 5.1 1.5 7.9 1.5 2.9 0 5.8-.5 7.9-1.5 0 0 6.5-2.9 13.8-7.2 7.2-4.3 13-8.6 13-8.6 3.9-2.9 7.4-9.2 7.9-14 0 0 .8-7.2.8-15.8 0-8.6-.7-15.8-.7-15.8zm-4 31c-.4 3.8-3.4 9-6.3 11.2-.1 0-5.7 4.2-12.6 8.3-6.9 4.1-13.3 7-13.4 7-1.6.7-3.9 1.1-6.3 1.1s-4.7-.4-6.3-1.1c-.1 0-6.4-2.9-13.4-7-6.9-4.1-12.6-8.3-12.6-8.3-3-2.2-6-7.5-6.4-11.2-.2-.1-.9-7.1-.9-15.2s.7-15.3.7-15.3c.4-3.9 3.4-9.1 6.3-11.3.1 0 5.7-4.2 12.6-8.3s13.3-7 13.4-7c1.7-.7 4-1.1 6.4-1.1s4.7.4 6.3 1.1c.1 0 6.4 2.9 13.4 7 6.9 4.1 12.6 8.3 12.6 8.3 3 2.2 6 7.5 6.3 11.2 0 .1.7 7.1.7 15.3.2 8.1-.5 15.2-.5 15.3z"/><path d="M65.5 35.2V24.9c0-1.1-.9-2-2-2h-42c-1.1 0-2 .9-2 2v42c0 1.1.9 2 2 2h22.8c3.2 2.2 7 3.5 11.2 3.5 11 0 19.9-8.9 19.9-19.9.1-7.4-4-13.8-9.9-17.3zM23.6 64.8v-38h37.8v6.5c-1.3-.4-2.6-.7-4-.8-.3-.1-8.6-.2-8.9-.2H28.9c-1.1 0-2 .9-2 2s.9 2 2 2h14.9c-2.2 1.6-4.1 3.7-5.5 6.1H28.9c-1.1 0-2 .9-2 2s.9 2 2 2h7.6c-.6 1.9-.9 3.9-.9 5.9v.3h-6.7c-1.1 0-2 .9-2 2s.9 2 2 2h7.2c.7 3 2 5.8 3.9 8.1l-16.4.1zm31.9 3.5c-8.8 0-15.9-7.1-15.9-15.9s7.1-15.9 15.9-15.9 15.9 7.1 15.9 15.9c.1 8.8-7.1 15.9-15.9 15.9z"/></g></svg>