<svg xmlns="http://www.w3.org/2000/svg" viewBox="0 0 87 94"><g fill="#882C80"><path d="M86.2 31.2c-.5-4.8-4.1-11.1-7.9-14 0 0-5.8-4.3-13-8.5C58 4.4 51.4 1.5 51.4 1.5 49.2.5 46.3 0 43.5 0c-2.9 0-5.8.5-7.9 1.5 0 0-6.5 2.9-13.8 7.2-7.2 4.3-13 8.5-13 8.5-3.9 2.9-7.4 9.2-7.9 14 0 0-.8 7.2-.8 15.8 0 8.5.8 15.8.8 15.8.5 4.8 4.1 11.1 7.9 14 0 0 5.8 4.3 13 8.6s13.8 7.2 13.8 7.2c2.2 1 5.1 1.5 7.9 1.5 2.9 0 5.8-.5 7.9-1.5 0 0 6.5-2.9 13.8-7.2 7.2-4.3 13-8.6 13-8.6 3.9-2.9 7.4-9.2 7.9-14 0 0 .8-7.2.8-15.8 0-8.6-.7-15.8-.7-15.8zm-4 30.9c-.4 3.8-3.4 9-6.3 11.2-.1 0-5.7 4.2-12.6 8.3-6.9 4.1-13.3 7-13.4 7-1.6.7-3.9 1.1-6.3 1.1s-4.7-.4-6.3-1.1c-.1 0-6.4-2.9-13.4-7-6.9-4-12.6-8.2-12.6-8.2-3-2.2-6-7.5-6.4-11.3C4.7 62 4 55 4 46.9s.7-15.3.7-15.3c.4-3.8 3.4-9 6.4-11.3.1 0 5.7-4.2 12.6-8.3S37 5 37.1 5c1.6-.7 3.9-1.1 6.3-1.1s4.7.4 6.3 1.1c.1 0 6.4 2.9 13.4 7 6.9 4.1 12.6 8.3 12.6 8.3 3 2.2 6 7.5 6.3 11.2 0 .1.7 7.1.7 15.3.2 8.2-.5 15.3-.5 15.3z"/><path d="M39.5 52.2c1.1 0 2-.9 2-2v-4.5h4.1v4.5c0 1.1.9 2 2 2s2-.9 2-2V37.4c0-1.1-.9-2-2-2s-2 .9-2 2v4.5h-4.1v-4.5c0-1.1-.9-2-2-2s-2 .9-2 2v12.9c0 1 .9 1.9 2 1.9zM55.5 52.2c1.1 0 2-.9 2-2v-4.5h4.1v4.5c0 1.1.9 2 2 2s2-.9 2-2V37.4c0-1.1-.9-2-2-2s-2 .9-2 2v4.5h-4.1v-4.5c0-1.1-.9-2-2-2s-2 .9-2 2v12.9c0 1 .9 1.9 2 1.9zM20.9 50.6c0 .1 0 .1.1.2 0 .1 0 .1.1.2 0 .1.1.1.1.2s.1.1.1.2.1.1.1.2l.1.1.2.2.1.1c.1.1.3.2.5.2h.1c.2 0 .3.1.5.1s.3 0 .4-.1h.1c.1 0 .2-.1.3-.1 0 0 .1 0 .1-.1.1 0 .2-.1.2-.2l.1-.1c.1-.1.2-.2.2-.3l5.4-7.7v6.6c0 1.1.9 2 2 2s2-.9 2-2v-13c0-.9-.6-1.6-1.4-1.9-.8-.3-1.7 0-2.2.8L24.8 44v-6.6c0-1.1-.9-2-2-2s-2 .9-2 2v13c.1 0 .1.1.1.2z"/><path d="M72.2 25.4H14.7c-1.1 0-2 .9-2 2v40c0 1.1.9 2 2 2h57.4c1.1 0 2-.9 2-2v-40c.1-1.1-.8-2-1.9-2zm-2 39.9H16.7v-36h53.4v36z"/><path d="M20.9 60.3h44.9c1.1 0 2-.9 2-2s-.9-2-2-2H20.9c-1.1 0-2 .9-2 2s.9 2 2 2z"/></g></svg>