<svg xmlns="http://www.w3.org/2000/svg" viewBox="0 0 87 94"><g fill="#5CC4CA"><path d="M86.2 31.2c-.5-4.8-4.1-11.1-7.9-14 0 0-5.8-4.3-13-8.5C58 4.4 51.4 1.5 51.4 1.5 49.2.5 46.3 0 43.5 0c-2.9 0-5.8.5-7.9 1.5 0 0-6.5 2.9-13.8 7.2-7.2 4.3-13 8.5-13 8.5-3.9 2.9-7.4 9.2-7.9 14 0 0-.8 7.2-.8 15.8 0 8.5.8 15.8.8 15.8.5 4.8 4.1 11.1 7.9 14 0 0 5.8 4.3 13 8.6s13.8 7.2 13.8 7.2c2.2 1 5.1 1.5 7.9 1.5 2.9 0 5.8-.5 7.9-1.5 0 0 6.5-2.9 13.8-7.2 7.2-4.3 13-8.6 13-8.6 3.9-2.9 7.4-9.2 7.9-14 0 0 .8-7.2.8-15.8.1-8.5-.7-15.8-.7-15.8zm-4 31c-.4 3.8-3.4 9-6.3 11.2-.1 0-5.7 4.2-12.6 8.3-6.9 4.1-13.3 7-13.4 7-1.6.7-3.9 1.1-6.3 1.1s-4.7-.4-6.3-1.1c-.1 0-6.4-2.9-13.4-7-6.9-4.1-12.6-8.3-12.6-8.3-3-2.2-5.9-7.5-6.3-11.2-.3 0-1-7.1-1-15.2s.7-15.3.7-15.3c.4-3.8 3.4-9 6.3-11.2.1 0 5.7-4.2 12.6-8.3s13.3-7 13.4-7c1.7-.8 4-1.2 6.4-1.2 2.4 0 4.7.4 6.3 1.1.1 0 6.4 2.9 13.4 7 6.9 4.1 12.6 8.3 12.6 8.3 3 2.2 5.9 7.5 6.3 11.2 0 .1.7 7.1.7 15.3.3 8.2-.5 15.3-.5 15.3z"/><path d="M45.7 29.4c-.3-.2-.7-.4-1.1-.4-1 0-6-.4-6-6 0-2.9 3.1-6 6-6s5 2.1 5 4-1.2 3-2 3c-.9 0-1.6-.2-1.9-.5-.2-.3-.2-.9-.2-1 .3-1.1-.4-2.2-1.5-2.4-1.1-.3-2.2.4-2.4 1.5-.1.3-.6 2.6.9 4.4 1.1 1.4 2.8 2 5.1 2 3.3 0 6-3.1 6-7 0-4.3-4.1-8-9-8-5.1 0-10 4.9-10 10 0 3.3 1.1 5.6 2.7 7.1C27.9 32.8 21 41.5 21 51.7c0 12.4 10.1 22.5 22.6 22.5S66.1 64 66.1 51.6c0-11.5-9-21.1-20.4-22.2zm-2.2 40.7C33.3 70.1 25 61.8 25 51.6s8.3-18.5 18.5-18.5S62 41.5 62 51.6c0 10.3-8.3 18.5-18.5 18.5z"/><ellipse cx="36" cy="47.4" rx="3.5" ry="3.5"/><ellipse cx="51" cy="47.4" rx="3.5" ry="3.5"/><path d="M53.4 54.7c-1-.5-2.2-.1-2.7.8-1.4 2.7-4.2 4.4-7.2 4.4s-5.8-1.7-7.2-4.4c-.5-1-1.7-1.4-2.7-.8-1 .5-1.4 1.7-.8 2.7 2.1 4 6.2 6.5 10.7 6.5s8.6-2.5 10.7-6.5c.5-1 .2-2.2-.8-2.7z"/></g></svg>