<svg viewBox="0 0 103 110" xmlns="http://www.w3.org/2000/svg"><g fill="#5EB346" fill-rule="evenodd"><path d="M101.145 36.662c-.6-5.656-4.778-13.026-9.29-16.382 0 0-6.74-5.013-15.203-9.99-8.47-4.977-16.103-8.417-16.103-8.417C57.997.726 54.63.15 51.263.15c-3.365 0-6.733.576-9.287 1.723 0 0-7.636 3.44-16.103 8.417-8.462 4.977-15.202 9.99-15.202 9.99-4.512 3.356-8.69 10.726-9.287 16.382 0 0-.895 8.45-.895 18.405 0 9.95.895 18.404.895 18.404.597 5.657 4.775 13.027 9.285 16.377 0 0 6.742 5.018 15.204 9.998 8.467 4.973 16.103 8.412 16.103 8.412 2.554 1.15 5.922 1.725 9.287 1.725 3.367 0 6.734-.575 9.285-1.725 0 0 7.632-3.44 16.1-8.412 8.465-4.98 15.204-9.998 15.204-9.998 4.513-3.35 8.692-10.72 9.29-16.376 0 0 .895-8.452.895-18.403 0-9.955-.895-18.405-.895-18.405zm-4.657 36.316c-.464 4.394-3.937 10.528-7.43 13.12-.066.052-6.66 4.938-14.783 9.717-8.13 4.78-15.576 8.15-15.648 8.184-1.85.83-4.536 1.31-7.363 1.31-2.828 0-5.512-.48-7.363-1.31-.07-.036-7.495-3.394-15.645-8.182-8.13-4.782-14.722-9.668-14.79-9.72-3.493-2.597-6.96-8.726-7.424-13.12-.01-.08-.868-8.343-.868-17.91 0-9.57.86-17.836.87-17.918.463-4.39 3.936-10.523 7.43-13.123.063-.05 6.628-4.92 14.777-9.712C36.38 9.54 43.83 6.168 43.9 6.137c1.853-.836 4.536-1.313 7.364-1.313 2.827 0 5.51.477 7.36 1.31.075.034 7.498 3.39 15.653 8.186 8.124 4.777 14.717 9.657 14.782 9.707 3.49 2.598 6.964 8.732 7.428 13.123.01.082.87 8.347.87 17.917 0 9.568-.86 17.83-.87 17.91z"/><path d="M82.084 30.527h-62.81c-2.587 0-4.683 2.095-4.683 4.674v38.56c0 2.582 2.097 4.673 4.683 4.673h62.81c2.59 0 4.683-2.09 4.683-4.674V35.2c0-2.578-2.094-4.673-4.682-4.673zM19.274 35.2h62.81v38.56h-62.81V35.2z"/><path d="M57.687 46.837H73.44c1.29 0 2.34-1.045 2.34-2.337 0-1.29-1.05-2.336-2.34-2.336H57.687c-1.292 0-2.34 1.047-2.34 2.336 0 1.292 1.048 2.337 2.34 2.337M57.687 65.094H73.44c1.29 0 2.34-1.046 2.34-2.337 0-1.29-1.05-2.337-2.34-2.337H57.687c-1.292 0-2.34 1.047-2.34 2.337 0 1.29 1.048 2.337 2.34 2.337M57.687 56.04H73.44c1.29 0 2.34-1.047 2.34-2.338 0-1.29-1.05-2.337-2.34-2.337H57.687c-1.292 0-2.34 1.047-2.34 2.337 0 1.29 1.048 2.337 2.34 2.337M25.11 68.163h23.113c.708 0 1.38-.322 1.823-.87.445-.55.616-1.268.467-1.957-.985-4.6-4.07-8.323-8.06-10.19 1.803-1.597 2.942-3.918 2.942-6.508 0-4.804-3.914-8.71-8.726-8.71-4.815 0-8.73 3.906-8.73 8.71 0 2.59 1.142 4.91 2.942 6.508-3.985 1.867-7.07 5.59-8.062 10.19-.144.69.027 1.408.47 1.958.444.547 1.113.87 1.82.87zM36.67 44.6c2.232 0 4.043 1.81 4.043 4.038 0 2.234-1.81 4.04-4.044 4.04-2.236 0-4.05-1.806-4.05-4.04 0-2.23 1.814-4.037 4.05-4.037zm0 13.922c3.41 0 6.526 1.973 8.202 4.968H28.464c1.68-2.995 4.79-4.968 8.205-4.968z"/></g></svg>