<svg xmlns="http://www.w3.org/2000/svg" viewBox="0 0 101 110"><path fill="#5EB346" d="M50.3 5.2c2.8 0 5.5.5 7.3 1.3.1 0 7.4 3.4 15.5 8.1 8 4.7 14.6 9.6 14.6 9.6 3.5 2.6 6.9 8.7 7.4 13 0 .1.9 8.3.9 17.8s-.9 17.7-.9 17.8c-.5 4.4-3.9 10.4-7.4 13-.1 0-6.6 4.9-14.6 9.6-8 4.7-15.4 8.1-15.5 8.1-1.8.8-4.5 1.3-7.3 1.3s-5.5-.5-7.3-1.3c-.1 0-7.4-3.4-15.5-8.1-8-4.7-14.6-9.6-14.6-9.6-3.5-2.6-6.9-8.6-7.4-13 0-.1-.9-8.3-.9-17.8s.9-17.7.9-17.8c.5-4.4 3.9-10.4 7.4-13 .1 0 6.6-4.9 14.6-9.6C35.6 9.9 43 6.5 43 6.5c1.9-.8 4.5-1.3 7.3-1.3m0-4.6c-3.3 0-6.7.6-9.2 1.7 0 0-7.6 3.4-15.9 8.3-8.4 4.9-15.1 9.9-15.1 9.9C5.6 23.8 1.5 31.1.9 36.7c0 0-.9 8.4-.9 18.2 0 9.9.9 18.2.9 18.2.6 5.6 4.7 12.9 9.2 16.2 0 0 6.7 5 15.1 9.9 8.4 4.9 15.9 8.3 15.9 8.3 2.5 1.1 5.9 1.7 9.2 1.7 3.3 0 6.7-.6 9.2-1.7 0 0 7.6-3.4 15.9-8.3 8.4-4.9 15.1-9.9 15.1-9.9 4.5-3.3 8.6-10.6 9.2-16.2 0 0 .9-8.4.9-18.2 0-9.9-.9-18.2-.9-18.2-.6-5.6-4.7-12.9-9.2-16.2 0 0-6.7-5-15.1-9.9C67 5.7 59.5 2.3 59.5 2.3 57 1.1 53.7.6 50.3.6"/><path fill="#5EB346" d="M49.2 78.4c-4.7 0-9.4-1.1-13.4-3.3l-10.6 2.6c-.7.2-1.4 0-1.9-.6-.5-.5-.7-1.3-.5-2l2.9-9.4c-2-3.3-3-7.1-3-10.8 0-12.9 11.9-23.4 26.5-23.4S75.7 42 75.7 54.9c0 13-11.9 23.5-26.5 23.5zM36 71c.3 0 .7.1 1 .3 3.6 2 7.9 3.1 12.2 3.1 12.4 0 22.5-8.7 22.5-19.4S61.6 35.6 49.2 35.6 26.7 44.3 26.7 55c0 3.3 1 6.6 2.9 9.4.3.5.4 1.1.2 1.7L27.7 73l7.9-2c.1.1.3 0 .4 0z"/><path fill="#5EB346" d="M41.3 55.3c0 1.9-1.6 3.5-3.5 3.5s-3.5-1.6-3.5-3.5 1.6-3.5 3.5-3.5c1.9.1 3.5 1.6 3.5 3.5M51.7 55.3c0 1.9-1.6 3.5-3.5 3.5s-3.5-1.6-3.5-3.5 1.6-3.5 3.5-3.5 3.5 1.6 3.5 3.5M62.1 55.3c0 1.9-1.6 3.5-3.5 3.5s-3.5-1.6-3.5-3.5 1.6-3.5 3.5-3.5c2 .1 3.5 1.6 3.5 3.5"/></svg>