<svg viewBox="0 0 102 111" xmlns="http://www.w3.org/2000/svg"><g fill="#5EB346" fill-rule="evenodd"><path d="M101.095 37.017c-.6-5.663-4.794-13.046-9.318-16.406 0 0-6.765-5.02-15.257-10-8.496-4.987-16.153-8.432-16.153-8.432C57.805 1.026 54.427.45 51.047.45c-3.378 0-6.756.576-9.32 1.728 0 0-7.66 3.445-16.153 8.43-8.495 4.982-15.257 10.003-15.257 10.003-4.525 3.36-8.72 10.744-9.32 16.407 0 0-.896 8.466-.896 18.434 0 9.97.897 18.436.897 18.436.6 5.662 4.795 13.043 9.316 16.4 0 0 6.766 5.027 15.26 10.014 8.494 4.98 16.155 8.426 16.155 8.426 2.563 1.15 5.94 1.726 9.32 1.726 3.378 0 6.757-.576 9.32-1.726 0 0 7.656-3.445 16.15-8.426 8.494-4.987 15.26-10.013 15.26-10.013 4.523-3.358 8.718-10.74 9.317-16.4 0 0 .898-8.467.898-18.436 0-9.967-.898-18.433-.898-18.433zm-4.67 36.375c-.467 4.4-3.95 10.542-7.455 13.142-.066.048-6.68 4.944-14.834 9.732-8.154 4.782-15.628 8.16-15.7 8.192-1.858.834-4.552 1.312-7.39 1.312-2.836 0-5.53-.478-7.385-1.312-.074-.033-7.523-3.395-15.7-8.192-8.157-4.788-14.77-9.684-14.837-9.732-3.505-2.6-6.987-8.742-7.453-13.14-.008-.083-.872-8.333-.872-17.943 0-9.584.864-17.86.872-17.94.466-4.4 3.95-10.542 7.455-13.146.066-.048 6.678-4.938 14.834-9.722 8.152-4.786 15.627-8.165 15.7-8.196 1.858-.837 4.55-1.315 7.387-1.315 2.837 0 5.53.48 7.386 1.313.075.034 7.546 3.413 15.704 8.2 8.155 4.783 14.767 9.673 14.834 9.72 3.503 2.605 6.988 8.746 7.455 13.143.01.085.87 8.36.87 17.945 0 9.583-.86 17.86-.87 17.942z"/><path d="M73.636 39.106l-.02-4.994c0-1.957-.827-3.734-2.273-4.88-1.515-1.204-3.56-1.604-5.767-1.133l-35.64 4.093c-5.836.65-7.06 3.41-7.06 5.622l-.007 35.257c0 3.426 2.798 6.215 6.234 6.215H72.99c3.436 0 6.235-2.79 6.235-6.215v-27.82c0-3.204-2.458-5.82-5.59-6.146zm.89 24.222c-.135-.024-.274-.04-.416-.04H63.017c-2.57 0-4.664-2.085-4.664-4.65 0-2.56 2.093-4.646 4.664-4.646H74.11c.142 0 .28-.018.417-.04v9.376zm-44.06-26.485l35.766-4.11c.088-.008.173-.022.26-.042.836-.19 1.522-.12 1.925.2.32.255.5.7.5 1.23l.02 4.92H29.105c-.04 0-.082.002-.122.004l-.142.002c-.694 0-.977-.278-1.266-.865v-.374c0-.237.606-.71 2.892-.963zM72.99 74.606H29.104c-.847 0-1.537-.688-1.537-1.534v-29.46c.56.106 1.07.132 1.592.108h43.83c.847 0 1.537.688 1.537 1.532v4.1c-.136-.023-.275-.04-.417-.04H63.017c-5.162 0-9.362 4.184-9.362 9.326 0 5.146 4.2 9.33 9.362 9.33H74.11c.142 0 .28-.018.417-.043v5.147c0 .846-.69 1.534-1.537 1.534z"/><path d="M63.22 56.14c-1.377 0-2.493 1.116-2.493 2.488 0 1.372 1.116 2.486 2.494 2.486 1.38 0 2.497-1.114 2.497-2.486S64.6 56.14 63.22 56.14"/></g></svg>