<svg xmlns="http://www.w3.org/2000/svg" viewBox="0 0 86.8 94"><g fill="#5CC4CA"><path d="M86.1 31.2c-.5-4.8-4.1-11.1-7.9-14 0 0-5.8-4.3-13-8.5C58 4.4 51.4 1.5 51.4 1.5 49.2.5 46.3 0 43.5 0s-5.8.5-7.9 1.5c0 0-6.5 2.9-13.8 7.2-7.2 4.3-13 8.5-13 8.5-3.9 2.9-7.4 9.2-7.9 14 0 0-.8 7.2-.8 15.8 0 8.5.8 15.8.8 15.8.5 4.8 4.1 11.1 7.9 14 0 0 5.8 4.3 13 8.6s13.8 7.2 13.8 7.2c2.2 1 5.1 1.5 7.9 1.5s5.8-.5 7.9-1.5c0 0 6.5-2.9 13.8-7.2 7.2-4.3 13-8.6 13-8.6 3.9-2.9 7.4-9.2 7.9-14 0 0 .8-7.2.8-15.8 0-8.5-.8-15.8-.8-15.8zm-4 31.1c-.4 3.8-3.4 9-6.3 11.2-.1 0-5.7 4.2-12.6 8.3-6.9 4.1-13.3 7-13.4 7-1.6.7-3.9 1.1-6.3 1.1s-4.7-.4-6.3-1.1c-.1 0-6.4-2.9-13.4-7-7.1-4.1-12.8-8.3-12.8-8.3-3-2.2-5.9-7.5-6.3-11.2-.1 0-.8-7.1-.8-15.3s.7-15.3.7-15.3c.4-3.8 3.4-9 6.3-11.2.1 0 5.7-4.2 12.6-8.3s13.3-7 13.4-7C38.7 4.4 41 4 43.4 4s4.7.4 6.3 1.1c.1 0 6.4 2.9 13.4 7 6.9 4.1 12.6 8.3 12.6 8.3 3 2.2 5.9 7.5 6.3 11.2 0 .1.7 7.1.7 15.3.2 8.3-.6 15.4-.6 15.4z"/><path d="M69.3 29.8c-4.4-1.6-8 1.2-11 4.2-.5.5-1.4 1.4-2.5 2.6H42.4V21.4c0-.9-.6-1.7-1.5-1.9-1.4-.4-2.9-.5-4.2-.5-9.6 0-17.4 7.8-17.4 17.4 0 5.5 2.7 10.7 7 13.9 4.2 3.4 9 3.5 12.4 3.5-.8.8-1.5 1.5-2.2 2.3-1.4-.9-3.1-1.4-4.8-1.4-5 0-9.1 4.1-9.1 9.1s4.1 9.1 9.1 9.1 9.1-4.1 9.1-9.1c0-1.8-.5-3.5-1.4-4.9l3.5-3.5.2.2 3.2 3.2c-.9 1.4-1.5 3.1-1.5 5 0 5 4.1 9.1 9.1 9.1s9.1-4.1 9.1-9.1-4.1-9.1-9.1-9.1c-1.7 0-3.4.5-4.7 1.3L47 53.8h4.4c6.1 0 11-5 11-11.1 0-1.6 0-2.7-.2-3.6-.2-.9-.6-1.5-1.2-2l.2-.2c3.7-3.7 5.5-3.8 6.8-3.3.8.3 1.2 1.2 1.2 1.8 0 .5-.3.6-.4.7-.3.1-.5.2-.6.2-.3-.9-1.3-1.5-2.3-1.3-1.1.2-1.7 1.3-1.5 2.4.1.3.4 1.7 1.9 2.4.8.4 2.1.8 4 0 1.8-.7 3-2.4 3-4.4-.1-2.4-1.7-4.7-4-5.6zm-37.8 39c-2.8 0-5.1-2.3-5.1-5.1s2.3-5.1 5.1-5.1c.7 0 1.3.1 1.9.4l-3 3c-.5.4-.8.9-.8 1.6 0 1.1.9 2 2 2 .5 0 .9-.2 1.3-.5l3.3-3.3c.2.6.4 1.2.4 1.9 0 2.8-2.2 5.1-5.1 5.1zm17.6-7.2l3.4 3.4c.4.4.9.6 1.4.6s1-.2 1.4-.6c.8-.8.8-2 0-2.8L52 58.9c.5-.2 1.1-.3 1.8-.3 2.8 0 5.1 2.3 5.1 5.1s-2.3 5.1-5.1 5.1-5.1-2.3-5.1-5.1c-.1-.8.1-1.4.4-2.1zm-6.5-11.9H39c-3.1 0-7 0-10.4-2.7-3.4-2.5-5.5-6.5-5.5-10.8 0-7.4 6-13.4 13.4-13.4.6 0 1.2 0 1.8.1v15.6c0 .5.2 1 .6 1.4.4.4.9.6 1.4.6h11.4c-2.8 2.9-6 6.1-9.1 9.2zm8.6 0h-2.9c3.3-3.4 6.6-6.6 9.1-9.1h.9v2.1c-.1 3.9-3.2 7-7.1 7z"/></g></svg>