<svg xmlns="http://www.w3.org/2000/svg" viewBox="0 0 102 110"><g fill="#c22253"><path d="M51.1 4.7c2.8 0 5.5.5 7.4 1.3.1 0 7.5 3.4 15.7 8.2 8.1 4.8 14.7 9.7 14.8 9.7 3.5 2.6 7 8.7 7.4 13.1 0 .1.9 8.3.9 17.9 0 9.6-.9 17.8-.9 17.9-.5 4.4-3.9 10.6-7.4 13.2-.1 0-6.6 4.9-14.8 9.7-8.1 4.8-15.6 8.1-15.7 8.2-1.9.8-4.5 1.3-7.4 1.3-2.8 0-5.5-.5-7.4-1.3-.1 0-7.5-3.4-15.7-8.2-8.1-4.8-14.7-9.7-14.7-9.7-3.5-2.6-7-8.7-7.4-13.1 0-.1-.9-8.3-.9-17.9 0-9.6.9-17.8.9-17.9.5-4.4 3.9-10.5 7.4-13.1.1 0 6.6-4.9 14.8-9.7C36.2 9.4 43.7 6 43.7 6c1.9-.8 4.6-1.3 7.4-1.3m0-4.7c-3.4 0-6.7.6-9.3 1.7 0 0-7.6 3.4-16.1 8.4-8.5 5-15.2 10-15.2 10C6 23.5 1.8 30.8 1.2 36.5c0 0-.9 8.5-.9 18.4 0 10 .9 18.4.9 18.4.6 5.7 4.8 13 9.3 16.4 0 0 6.8 5 15.2 10 8.5 5 16.1 8.4 16.1 8.4 2.6 1.1 5.9 1.7 9.3 1.7 3.4 0 6.7-.6 9.3-1.7 0 0 7.6-3.4 16.1-8.4 8.5-5 15.2-10 15.2-10 4.5-3.4 8.7-10.7 9.3-16.4 0 0 .9-8.5.9-18.4 0-10-.9-18.4-.9-18.4-.6-5.7-4.8-13-9.3-16.4 0 0-6.8-5-15.2-10-8.5-5-16.1-8.4-16.1-8.4C57.9.6 54.5 0 51.1 0"/><path d="M32.3 85.3c-9.5 0-17.3-7.7-17.3-17.2 0-5.9 3-11.2 7.6-14.3v-.9c0-1.7 1.3-3.1 3-3.2-.2-1-.2-2-.2-3 0-5.4 2.1-9.6 5.2-10.7.2-2.4 1.4-5 3.2-7.4 3.8-5 9-7 12.1-4.6l.1.1c2.4-1.7 6.7-1.8 11.1.1 2.8 1.2 5.1 2.9 6.5 4.8l.2-.2c1.2-1.2 3.2-1.2 4.5 0l1.2 1.2.1.1c.5 0 1-.1 1.5-.1 9.5 0 17.3 7.7 17.3 17.2S80.5 64.3 71 64.3s-17.3-7.7-17.3-17.2c0-1.6.2-3.1.6-4.5-.6-.6-.9-1.4-.9-2.2 0-.8.3-1.6.9-2.2l.5-.5c-1-.2-2-.5-3-1-2-.8-3.8-2-5.1-3.3-.5 1.2-1.2 2.3-2.1 3.5-1.9 2.5-4.1 4.2-6.3 5 .4 1.5.7 3.1.7 4.9 0 1.1-.1 2.1-.2 3h.5c1.7 0 3.2 1.4 3.2 3.2v1.2c4.4 3.1 7.2 8.2 7.2 14-.1 9.4-7.9 17.1-17.4 17.1zm-7.8-27.9c-3.3 2.4-5.5 6.3-5.5 10.7 0 7.3 6 13.2 13.3 13.2 7.3 0 13.3-5.9 13.3-13.2 0-4.3-2.1-8.2-5.3-10.6-.3.1-.7.2-1.1.2H25.8c-.5 0-.9-.1-1.3-.3zm33.4-12.8c-.2.8-.2 1.6-.2 2.5 0 7.3 6 13.2 13.3 13.2s13.3-5.9 13.3-13.2-6-13.2-13.3-13.2c-.4 0-.9 0-1.3.1-.1.1-.2.3-.3.4L60 43.8c-.7.5-1.4.8-2.1.8zm-28.2 5.1h4.9c.2-.9.3-1.9.3-3 0-1.8-.3-3.3-.8-4.5-.6-.2-1.2-.4-1.7-.8-.5-.3-.8-.8-1.1-1.3-.9.9-2 3.2-2 6.6.1 1.1.2 2.1.4 3zm4.8-13.3c.7.4 1.4 1 2 1.8 1.3-.4 3.2-1.6 4.9-3.8 1.9-2.5 2.6-5 2.4-6.4 0-.3-.1-.7-.4-.9-.8-.6-3.8.4-6.5 3.9-1.5 2-2.2 4-2.4 5.4zm8.5-.8zm10.3-2.7c2 .8 3.7 1.1 5.1 1l2.2-2.2c-.7-1.2-2.5-2.8-5.1-3.9-4-1.7-7.2-1-7.5-.1-.1.3 0 .6.1.9.5 1.3 2.3 3.1 5.2 4.3z"/></g></svg>