<svg xmlns="http://www.w3.org/2000/svg" viewBox="0 0 101 110"><g fill="#008E64"><path d="M50.6.3c-3.3 0-6.7.6-9.2 1.7 0 0-7.6 3.4-15.9 8.3-8.4 4.9-15.1 9.9-15.1 9.9-4.5 3.3-8.6 10.6-9.2 16.2 0 0-.9 8.4-.9 18.2 0 10 .9 18.4.9 18.4.6 5.6 4.7 12.9 9.2 16.2 0 0 6.7 5 15.1 9.9 8.4 4.9 15.9 8.3 15.9 8.3 2.5 1.1 5.9 1.7 9.2 1.7 3.3 0 6.7-.6 9.2-1.7 0 0 7.6-3.4 15.9-8.3 8.4-4.9 15.1-9.9 15.1-9.9 4.5-3.3 8.6-10.6 9.2-16.2 0 0 .9-8.4.9-18.2 0-9.9-.9-18.2-.9-18.2-.6-5.6-4.7-12.9-9.2-16.2 0 0-6.7-5-15.1-9.9C67.3 5.4 59.8 2 59.8 2 57.3.9 53.9.3 50.6.3m0 4.6c2.8 0 5.5.5 7.3 1.3.1 0 7.4 3.4 15.5 8.1 8 4.8 14.6 9.6 14.6 9.7 3.5 2.6 6.9 8.7 7.4 13 0 .1.9 8.3.9 17.8s-.9 17.7-.9 17.8c-.5 4.4-3.9 10.4-7.4 13-.1 0-6.6 4.9-14.6 9.6-8 4.7-15.4 8.1-15.5 8.1-1.8.8-4.5 1.3-7.3 1.3s-5.5-.5-7.3-1.3c-.1 0-7.4-3.4-15.5-8.1-8.1-4.7-14.6-9.6-14.6-9.6-3.5-2.6-6.9-8.6-7.4-13 0-.1-.9-8.2-.9-17.8 0-9.5.9-17.7.9-17.8.5-4.4 3.9-10.4 7.4-13 .1 0 6.6-4.9 14.6-9.6 8.1-4.7 15.4-8.1 15.5-8.1 1.8-.9 4.5-1.4 7.3-1.4"/><path d="M31 87.3c-4.2 0-7.6-3.4-7.6-7.6 0-3.5 4.6-9.4 6-11.1.8-.9 2.3-.9 3.1 0 1.4 1.7 6 7.5 6 11.1 0 4.2-3.4 7.6-7.5 7.6zm0-14.1c-1.9 2.6-3.6 5.4-3.6 6.5 0 2 1.6 3.6 3.6 3.6s3.6-1.6 3.6-3.6c-.1-1.1-1.7-3.9-3.6-6.5zm9.4-8.4H26.9c-1.1 0-2-.9-2-2v-4.4c0-9.9 8-17.9 17.9-17.9h6.5c1.6-1.3 3.6-2.1 5.7-2.4V35h-9c-3.6 0-6.6-2.9-6.6-6.6 0-3.6 3-6.6 6.6-6.6h20.5c3.6 0 6.6 2.9 6.6 6.6 0 3.6-2.9 6.6-6.6 6.6h-7.6v3.4c1.6.4 3 1.1 4.3 2.1h10.5c1.1 0 2 .9 2 2V56c0 1.1-.9 2-2 2H63.5c-2 1.7-4.6 2.6-7.3 2.6s-5.2-.9-7.3-2.6H44c-.5.2-1.5 1.1-1.6 1.6v3.1c0 1.2-.9 2.1-2 2.1zm-11.5-4h9.5v-1.2c0-2.4 3.1-5.5 5.6-5.5h5.8c.5 0 1 .2 1.4.6 1.4 1.3 3.2 2.1 5.1 2.1 1.9 0 3.7-.7 5.1-2.1.4-.4.9-.6 1.4-.6h9v-9.5h-9.2c-.5 0-1-.2-1.3-.5-1.4-1.2-3.1-1.9-4.9-1.9-1.8 0-3.6.7-4.9 1.9-.4.3-.8.5-1.3.5H43c-7.7 0-13.9 6.2-13.9 13.9v2.3zM46 25.9c-1.4 0-2.6 1.2-2.6 2.6 0 1.4 1.2 2.6 2.6 2.6h20.5c1.4 0 2.6-1.2 2.6-2.6 0-1.4-1.2-2.6-2.6-2.6H46z"/></g></svg>