<svg viewBox="0 0 101 110" xmlns="http://www.w3.org/2000/svg"><g fill="#008E64" fill-rule="evenodd"><path d="M99.535 36.772c-.588-5.603-4.686-12.908-9.11-16.233 0 0-6.61-4.97-14.908-9.9C67.214 5.71 59.73 2.3 59.73 2.3 57.224 1.16 53.922.59 50.62.59c-3.3 0-6.603.57-9.106 1.71 0 0-7.488 3.408-15.788 8.34-8.302 4.93-14.91 9.9-14.91 9.9C6.396 23.863 2.3 31.17 1.71 36.77c0 0-.875 8.377-.875 18.24 0 9.864.875 18.238.875 18.238.587 5.605 4.685 12.91 9.107 16.232 0 0 6.61 4.97 14.91 9.905 8.3 4.93 15.79 8.338 15.79 8.338 2.502 1.14 5.804 1.708 9.105 1.708 3.3 0 6.603-.568 9.107-1.708 0 0 7.484-3.407 15.785-8.338 8.3-4.934 14.91-9.905 14.91-9.905 4.424-3.322 8.522-10.627 9.11-16.232 0 0 .875-8.374.875-18.24 0-9.86-.875-18.238-.875-18.238zm-4.567 35.993c-.455 4.355-3.86 10.43-7.285 13.003-.063.048-6.528 4.89-14.498 9.627-7.97 4.736-15.272 8.076-15.343 8.108-1.814.825-4.446 1.298-7.22 1.298s-5.406-.472-7.22-1.297c-.07-.032-7.352-3.358-15.343-8.106-7.972-4.74-14.437-9.58-14.502-9.63-3.423-2.573-6.826-8.65-7.28-13-.01-.084-.854-8.27-.854-17.756 0-9.48.844-17.67.853-17.75.455-4.354 3.86-10.43 7.285-13.007.064-.048 6.5-4.874 14.495-9.62 7.97-4.736 15.275-8.076 15.346-8.11 1.815-.825 4.446-1.3 7.22-1.3 2.772 0 5.402.475 7.217 1.3.073.034 7.352 3.36 15.347 8.11 7.97 4.732 14.433 9.572 14.496 9.622 3.425 2.574 6.83 8.65 7.285 13.004.01.08.85 8.27.85 17.75 0 9.487-.84 17.673-.85 17.755z"/><path d="M80.07 72.33h-2.955c0-.043.013-.08.013-.124V66.53h1.182c1.268 0 2.295-1.036 2.295-2.316 0-1.278-1.027-2.316-2.295-2.316h-1.182V49.885h1.182c1.268 0 2.295-1.036 2.295-2.316 0-1.28-1.027-2.316-2.295-2.316h-1.182v-4.627c0-1.426-.65-2.77-1.764-3.65l-5.91-4.66c-.83-.654-1.83-.98-2.827-.98-.998 0-1.997.326-2.827.983l-5.042 3.974-5.044-3.976c-.83-.655-1.828-.982-2.827-.982-.998 0-1.996.327-2.827.982l-5.05 3.98-5.044-3.978c-.83-.657-1.828-.984-2.827-.984-1 0-1.997.327-2.828.984l-5.908 4.658c-1.113.878-1.764 2.223-1.764 3.65v4.626h-1.452c-1.268 0-2.296 1.037-2.296 2.315 0 1.28 1.028 2.315 2.296 2.315h1.452v12.013h-1.452c-1.268 0-2.296 1.038-2.296 2.316 0 1.28 1.028 2.316 2.296 2.316h1.452v5.676c0 .043.01.08.01.123h-2.315c-1.268 0-2.295 1.034-2.295 2.314 0 1.278 1.027 2.316 2.295 2.316H80.07c1.267 0 2.296-1.038 2.296-2.316 0-1.28-1.03-2.315-2.296-2.315zm-34.43-5.8h10.488v5.676H45.64V66.53zm0-16.645h10.488v12.013H45.64V49.885zM61.388 66.53h11.15v5.676h-11.15V66.53zm0-16.645h11.15v12.013h-11.15V49.885zm5.24-13.918l5.91 4.66v4.627h-11.15v-4.627c0-.166-.038-.322-.055-.484l5.294-4.176zm-15.74 0l5.294 4.176c-.018.162-.056.318-.056.484v4.627H45.64v-4.627c0-.164-.038-.32-.055-.48l5.302-4.18zm-21.657 4.66l5.91-4.66 5.3 4.18c-.016.16-.055.316-.055.48v4.627H29.23v-4.627zm0 9.258h11.157v12.013H29.23V49.885zm0 16.645h11.157v5.676H29.23V66.53z"/></g></svg>