<svg viewBox="0 0 101 110" xmlns="http://www.w3.org/2000/svg"><g fill="#008E64" fill-rule="evenodd"><path d="M82.36 45.776L51.967 21.13c-.854-.694-2.08-.692-2.937.007L18.908 45.783c-.99.81-1.135 2.27-.322 3.26.814.987 2.277 1.132 3.267.32l3.4-2.782V70.21c0 4.47 3.645 8.105 8.127 8.105h33.086c4.48 0 8.127-3.635 8.127-8.105V45.446l4.838 3.924c.432.348.95.518 1.465.518.675 0 1.343-.292 1.802-.855.81-.99.66-2.45-.337-3.257zM69.95 70.208c0 1.92-1.56 3.473-3.484 3.473H33.38c-1.924 0-3.483-1.552-3.483-3.472V42.902L50.503 25.93 69.95 41.744v28.464z"/><path d="M99.846 36.737c-.596-5.604-4.74-12.91-9.214-16.233 0 0-6.686-4.97-15.082-9.9-8.398-4.93-15.968-8.34-15.968-8.34-2.532-1.14-5.87-1.71-9.21-1.71-3.34 0-6.68.57-9.213 1.71 0 0-7.573 3.41-15.972 8.34-8.394 4.93-15.08 9.9-15.08 9.9-4.473 3.324-8.62 10.63-9.212 16.233 0 0-.886 8.377-.886 18.24 0 9.864.886 18.238.886 18.238.593 5.604 4.74 12.91 9.21 16.23 0 0 6.688 4.972 15.082 9.907 8.4 4.93 15.97 8.338 15.97 8.338 2.534 1.137 5.873 1.708 9.213 1.708 3.34 0 6.68-.57 9.212-1.708 0 0 7.57-3.408 15.967-8.338 8.396-4.935 15.082-9.906 15.082-9.906 4.474-3.322 8.618-10.627 9.214-16.23 0 0 .885-8.375.885-18.24 0-9.862-.884-18.24-.884-18.24zm-4.62 35.993c-.46 4.352-3.903 10.43-7.368 13.003-.066.047-6.604 4.89-14.666 9.627-8.06 4.733-15.448 8.076-15.518 8.107-1.836.826-4.498 1.298-7.303 1.298-2.804 0-5.466-.472-7.3-1.298-.074-.033-7.44-3.36-15.523-8.107-8.062-4.737-14.6-9.58-14.665-9.63-3.465-2.57-6.907-8.648-7.368-13-.008-.083-.86-8.27-.86-17.754 0-9.482.852-17.67.86-17.752.46-4.354 3.905-10.43 7.37-13.007.065-.047 6.576-4.873 14.663-9.62 8.06-4.738 15.45-8.078 15.523-8.11 1.834-.827 4.496-1.3 7.3-1.3 2.806 0 5.466.473 7.302 1.3.073.032 7.435 3.36 15.523 8.11 8.06 4.733 14.598 9.573 14.663 9.62 3.462 2.574 6.907 8.653 7.37 13.007.007.08.86 8.27.86 17.752 0 9.483-.853 17.67-.86 17.754z"/><path d="M40.892 52.622c-.954-.86-2.42-.782-3.28.165-.86.947-.786 2.413.164 3.27l8.894 8.022c.444.4 1 .598 1.558.598.596 0 1.19-.228 1.642-.68l13.712-13.676c.908-.904.908-2.37 0-3.274-.906-.905-2.375-.905-3.283 0l-12.152 12.12-7.256-6.546"/></g></svg>