<svg viewBox="0 0 101 111" xmlns="http://www.w3.org/2000/svg"><g fill="#707A7E" fill-rule="evenodd"><path d="M99.915 37.006c-.594-5.658-4.732-13.03-9.2-16.387 0 0-6.678-5.017-15.06-9.99-8.388-4.984-15.948-8.424-15.948-8.424-2.53-1.15-5.864-1.726-9.2-1.726-3.334 0-6.668.576-9.197 1.727 0 0-7.563 3.44-15.948 8.422-8.385 4.973-15.06 9.99-15.06 9.99-4.467 3.354-8.607 10.727-9.2 16.385 0 0-.884 8.456-.884 18.412 0 9.958.885 18.414.885 18.414.592 5.656 4.732 13.03 9.198 16.384 0 0 6.678 5.02 15.063 10 8.385 4.975 15.948 8.416 15.948 8.416 2.53 1.152 5.864 1.724 9.2 1.724s6.67-.572 9.2-1.723c0 0 7.56-3.44 15.944-8.413 8.384-4.98 15.062-10 15.062-10 4.468-3.355 8.606-10.73 9.2-16.384 0 0 .883-8.456.883-18.414 0-9.957-.884-18.413-.884-18.413zM95.303 73.34c-.46 4.396-3.9 10.528-7.36 13.126-.064.048-6.593 4.937-14.643 9.72-8.05 4.776-15.428 8.15-15.5 8.183-1.833.83-4.49 1.31-7.292 1.31-2.8 0-5.46-.48-7.29-1.31-.073-.034-7.452-3.41-15.502-8.185-8.05-4.783-14.58-9.672-14.646-9.72-3.46-2.598-6.897-8.732-7.356-13.125-.008-.08-.86-8.32-.86-17.922 0-9.572.852-17.838.86-17.92.46-4.396 3.9-10.53 7.358-13.13.067-.048 6.592-4.934 14.644-9.712 8.05-4.78 15.43-8.154 15.5-8.187 1.833-.835 4.49-1.315 7.292-1.315 2.8 0 5.46.48 7.29 1.313.075.032 7.427 3.39 15.505 8.186 8.048 4.778 14.577 9.664 14.64 9.712 3.46 2.6 6.9 8.734 7.36 13.13.008.082.858 8.32.858 17.92 0 9.575-.85 17.84-.856 17.92z"/><path d="M73.115 55.418H60.872v-5.014c3.63-3.08 5.797-7.664 5.797-12.52 0-9.022-7.28-16.363-16.23-16.363s-16.233 7.343-16.233 16.366c0 5.417 2.65 10.406 6.956 13.426v4.108H27.9c-2.56 0-4.636 2.093-4.636 4.675v9.35c0 2.583 2.076 4.676 4.637 4.676h45.216c2.56 0 4.637-2.093 4.637-4.675v-9.35c0-2.583-2.076-4.676-4.637-4.676zm0 14.026H27.9v-9.35h17.9v-11.5c-4.092-1.804-6.955-5.917-6.955-10.71 0-6.453 5.19-11.688 11.594-11.688 6.4 0 11.59 5.235 11.59 11.69 0 4.322-2.334 8.09-5.796 10.113V60.09h16.88v9.35zm-1.81 8.182H30.73c-1.28 0-2.32 1.05-2.32 2.338 0 1.293 1.04 2.338 2.32 2.338h40.576c1.28 0 2.32-1.045 2.32-2.338 0-1.29-1.04-2.338-2.32-2.338"/></g></svg>