<svg viewBox="0 0 100 108" xmlns="http://www.w3.org/2000/svg"><g fill="#707A7E" fill-rule="evenodd"><path d="M98.894 35.98c-.59-5.555-4.693-12.792-9.123-16.088 0 0-6.617-4.923-14.93-9.807C66.524 5.197 59.03 1.82 59.03 1.82 56.52.69 53.215.126 49.91.126c-3.308 0-6.613.564-9.12 1.694 0 0-7.5 3.377-15.814 8.265-8.312 4.884-14.93 9.807-14.93 9.807C5.616 23.188 1.51 30.425.924 35.98c0 0-.877 8.3-.877 18.072 0 9.775.877 18.073.877 18.073.587 5.553 4.693 12.793 9.12 16.086 0 0 6.62 4.927 14.932 9.817 8.315 4.885 15.813 8.262 15.813 8.262 2.506 1.13 5.81 1.694 9.12 1.694 3.305 0 6.61-.565 9.12-1.695 0 0 7.493-3.378 15.807-8.263 8.314-4.89 14.933-9.815 14.933-9.815 4.43-3.292 8.535-10.532 9.124-16.085 0 0 .877-8.298.877-18.073 0-9.773-.875-18.073-.875-18.073zM94.32 71.642c-.457 4.317-3.865 10.338-7.295 12.888-.065.048-6.54 4.848-14.52 9.54-7.98 4.694-15.296 8.003-15.365 8.035-1.818.818-4.454 1.288-7.23 1.288-2.778 0-5.413-.47-7.23-1.286-.073-.034-7.364-3.33-15.37-8.034-7.98-4.695-14.455-9.495-14.52-9.542-3.428-2.55-6.836-8.572-7.293-12.883-.008-.08-.852-8.196-.852-17.594 0-9.395.844-17.51.852-17.592.457-4.313 3.865-10.334 7.296-12.885.064-.05 6.512-4.83 14.517-9.534C35.292 9.35 42.607 6.04 42.68 6.006c1.817-.82 4.452-1.29 7.23-1.29 2.776 0 5.41.47 7.228 1.29.072.033 7.36 3.33 15.37 8.036 7.98 4.69 14.453 9.488 14.517 9.535 3.428 2.55 6.838 8.572 7.296 12.886.01.08.853 8.198.853 17.593 0 9.398-.843 17.513-.85 17.59z"/><path d="M61.94 61.485c-1.24-2.286-3.434-3.827-5.97-4.256l-1.032-1.91 4.97-2.68c3.724-2.01 4.794-4.79 5.036-6.773.573-4.702-2.795-9.62-6.136-12.652-6.75-6.127-17.614-10.57-18.137-10.782-3.353-1.246-6.064-1.512-8.267-.818-.288.043-.57.14-.825.29-.028.015-.063.038-.1.062l-.103.047c-.25.124-.466.294-.65.496-1.814 1.452-3.09 3.882-3.903 7.454-.095.487-2.325 11.993-.89 20.984.71 4.453 2.986 9.96 7.24 12.057.92.452 2.13.837 3.594.837 1.397 0 3.023-.35 4.843-1.33l4.15-2.24 1.08 1.997c-.954 2.31-.836 4.962.36 7.167l7.167 13.246c1.514 2.795 4.404 4.386 7.386 4.386 1.343 0 2.707-.324 3.97-1.005 4.064-2.194 5.584-7.278 3.388-11.337l-7.17-13.245zM45.436 50.022c.072-.108.22-.27.48-.412.205-.112.427-.174.61-.174l7.89 14.573c-.073.11-.22.27-.482.412-.204.11-.425.172-.61.172L45.436 50.02zm-6.015 8.45c-1.62.877-3.003 1.014-4.21.418-2.503-1.232-4.21-5.356-4.74-8.663-1.302-8.175.84-19.268.85-19.31.702-3.09 1.66-4.364 2.36-4.888.826-.3 2.414-.4 5.324.68.106.042 10.56 4.32 16.71 9.9 2.485 2.254 5.003 5.94 4.666 8.704-.164 1.335-1.033 2.41-2.658 3.287l-4.97 2.68-2.308-4.266c-.737-1.357-2.2-2.168-3.914-2.168-.95 0-1.92.25-2.8.725-1.116.604-2.006 1.52-2.504 2.585-.597 1.278-.585 2.667.036 3.812l2.31 4.266-4.15 2.24zM63.538 82.03c-1.838.99-4.134.302-5.126-1.526l-6.19-11.44c.352.078.72.125 1.102.125.95 0 1.92-.254 2.8-.73 1.117-.603 2.006-1.52 2.504-2.583.08-.174.122-.35.18-.527l6.26 11.56c.992 1.832.306 4.128-1.528 5.118z"/></g></svg>