<svg xmlns="http://www.w3.org/2000/svg" viewBox="0 0 102 111"><g fill="#707A7E"><path d="M50.9 5.4c2.8 0 5.5.5 7.4 1.3.1 0 7.5 3.4 15.7 8.2 8.1 4.8 14.7 9.7 14.8 9.7 3.5 2.6 7 8.7 7.4 13.1 0 .1.9 8.3.9 17.9 0 9.6-.9 17.8-.9 17.9-.5 4.4-3.9 10.5-7.4 13.1-.1.1-6.6 4.9-14.8 9.7-8.1 4.8-15.6 8.2-15.7 8.2-1.9.8-4.5 1.3-7.4 1.3-2.8 0-5.5-.5-7.4-1.3-.1 0-7.5-3.4-15.7-8.2-8.1-4.8-14.7-9.7-14.8-9.7-3.5-2.6-7-8.7-7.4-13.1 0-.1-.9-8.3-.9-17.9 0-9.6.9-17.8.9-17.9.5-4.4 3.9-10.5 7.4-13.1.1 0 6.7-4.9 14.8-9.7 8.1-4.8 15.6-8.1 15.7-8.2 1.9-.8 4.6-1.3 7.4-1.3m0-4.7c-3.4 0-6.7.6-9.3 1.7 0 0-7.6 3.4-16.1 8.4-8.5 5-15.2 10-15.2 10C5.8 24.1 1.6 31.5 1 37.2c0 0-.9 8.5-.9 18.4C0 65.6.9 74 .9 74c.6 5.7 4.8 13 9.3 16.4 0 0 6.8 5 15.2 10 8.5 5 16.1 8.4 16.1 8.4 2.6 1.1 5.9 1.7 9.3 1.7 3.4 0 6.7-.6 9.3-1.7 0 0 7.6-3.4 16.1-8.4 8.5-5 15.2-10 15.2-10 4.5-3.4 8.7-10.7 9.3-16.4 0 0 .9-8.4.9-18.4 0-10-.9-18.4-.9-18.4-.6-5.7-4.8-13-9.3-16.4 0 0-6.8-5-15.2-10-8.5-5-16.1-8.4-16.1-8.4C57.7 1.3 54.3.7 50.9.7"/><path d="M50.9 87.3c-8.5 0-16.3-3.2-22.2-8.5l-.5.5c-.8.7-2.1.6-2.8-.2-.3-.4-.5-.8-.5-1.3 0-.6.2-1.1.7-1.5l.4-.3c-5-5.8-8-13.3-8-21.5s3-15.7 8-21.5l-.4-.3c-.8-.7-.9-2-.2-2.8.7-.8 2-.9 2.8-.2l.5.5c5.9-5.3 13.6-8.5 22.2-8.5 8.5 0 16.3 3.2 22.2 8.5l.5-.5c.8-.7 2.1-.6 2.8.2.3.4.5.8.5 1.3 0 .6-.2 1.1-.7 1.5l-.4.3c5 5.8 8 13.3 8 21.5s-3 15.7-8 21.5l.4.3c.5.4.7 1 .7 1.5s-.2.9-.5 1.3c-.7.8-2 .9-2.8.2l-.5-.5c-5.9 5.2-13.7 8.5-22.2 8.5zM31.8 76.1c5.1 4.5 11.8 7.2 19.1 7.2 7.3 0 14-2.7 19.1-7.2l-7.2-6.3c-.3-.3-.5-.7-.6-1.1-3.1 2.4-7 3.9-11.3 3.9-4.3 0-8.2-1.5-11.3-3.9-.1.4-.3.8-.6 1.1l-7.2 6.3zm-2.9-40.6c-4.4 5.1-7.1 11.7-7.1 18.9 0 7.2 2.7 13.8 7.1 18.9l7.4-6.4c.2-.2.5-.3.8-.4-2.8-3.2-4.5-7.4-4.5-12s1.7-8.8 4.5-12c-.3-.1-.5-.2-.8-.4l-7.4-6.6zm35.8 30.9c.3.1.5.2.8.4l7.4 6.4c4.4-5.1 7.1-11.7 7.1-18.9 0-7.2-2.7-13.8-7.1-18.9L65.5 42c-.2.2-.5.3-.8.4 2.8 3.2 4.5 7.4 4.5 12s-1.7 8.8-4.5 12zM50.9 40.1c-7.9 0-14.3 6.4-14.3 14.3S43 68.7 50.9 68.7s14.3-6.4 14.3-14.3-6.4-14.3-14.3-14.3zM39 38.9c.3.3.5.7.6 1.1 3.1-2.4 7-3.9 11.3-3.9 4.3 0 8.2 1.5 11.3 3.9.1-.4.3-.8.6-1.1l7.2-6.3c-5.1-4.5-11.8-7.2-19.1-7.2-7.3 0-14 2.7-19.1 7.2l7.2 6.3z"/></g></svg>