<?xml version="1.0" encoding="UTF-8"?>
<svg viewBox="0 0 102 110" version="1.1" xmlns="http://www.w3.org/2000/svg" xmlns:xlink="http://www.w3.org/1999/xlink">
    <!-- Generator: Sketch 42 (36781) - http://www.bohemiancoding.com/sketch -->
    <title>kompensation</title>
    <desc>Created with Sketch.</desc>
    <defs></defs>
    <g id="Стилеобразующие-элементы-услуг" stroke="none" stroke-width="1" fill="none" fill-rule="evenodd">
        <g id="7" transform="translate(-1007.000000, -306.000000)" fill="#5EB346">
            <g id="kompensation" transform="translate(1007.000000, 306.000000)">
                <path d="M101.0945,36.6346737 C100.497568,30.9806842 96.3167045,23.6114526 91.8081136,20.2545789 C91.8081136,20.2545789 85.0674659,15.2408842 76.6050795,10.2657474 C68.1368409,5.28827368 60.5019659,1.84961053 60.5019659,1.84961053 C57.950375,0.699884211 54.5829773,0.123852632 51.2155795,0.123852632 C47.8505227,0.123852632 44.483125,0.699884211 41.9303636,1.84961053 C41.9303636,1.84961053 34.2943182,5.28827368 25.8284205,10.2657474 C17.3636932,15.2408842 10.6242159,20.2545789 10.6242159,20.2545789 C6.11445455,23.6114526 1.93242045,30.9806842 1.33431818,36.6346737 C1.33431818,36.6346737 0.442431818,45.0882 0.442431818,55.0396421 C0.442431818,64.9922526 1.33431818,73.4446105 1.33431818,73.4446105 C1.93242045,79.0997684 6.11445455,86.4713368 10.6207045,89.8235368 C10.6207045,89.8235368 17.3636932,94.8419053 25.8284205,99.8217158 C34.2943182,104.794516 41.9303636,108.233179 41.9303636,108.233179 C44.483125,109.380568 47.8505227,109.955432 51.2155795,109.955432 C54.5829773,109.955432 57.950375,109.380568 60.5019659,108.233179 C60.5019659,108.233179 68.1368409,104.794516 76.6015682,99.8217158 C85.0674659,94.8419053 91.8081136,89.8235368 91.8081136,89.8235368 C96.3167045,86.4713368 100.497568,79.0997684 101.0945,73.4446105 C101.0945,73.4446105 101.989898,64.9922526 101.989898,55.0396421 C101.989898,45.0882 101.0945,36.6346737 101.0945,36.6346737 L101.0945,36.6346737 Z M96.4396023,72.9538737 C95.9737614,77.3494737 92.5045341,83.4790105 89.0107273,86.0764105 C88.9440114,86.1243158 82.3543523,91.0141579 74.2267159,95.793 C66.0979091,100.567168 58.6526477,103.9404 58.58125,103.971947 C56.7295909,104.805032 54.0433977,105.281747 51.2155795,105.281747 C48.3877614,105.281747 45.7039091,104.805032 43.8545909,103.971947 C43.7796818,103.938063 36.3566591,100.583526 28.2067841,95.7953368 C20.0779773,91.0141579 13.4859773,86.1243158 13.4180909,86.0740737 C9.92428409,83.4790105 6.45622727,77.3471368 5.99272727,72.9562105 C5.98336364,72.8744211 5.12425,64.6090105 5.12425,55.0396421 C5.12425,45.4737789 5.98336364,37.2083684 5.99272727,37.1254105 C6.45505682,32.7333158 9.92779545,26.6037789 13.4204318,24.0017053 C13.4859773,23.9561368 20.0522273,19.0838211 28.2044432,14.2932947 C36.3320795,9.51328421 43.7808523,6.14005263 43.85225,6.10733684 C45.7039091,5.27542105 48.3877614,4.79753684 51.2155795,4.79753684 C54.0433977,4.79753684 56.7295909,5.27542105 58.5765682,6.10733684 C58.6491364,6.14005263 66.0979091,9.51328421 74.2267159,14.2932947 C82.3543523,19.0698 88.9463523,23.9561368 89.0107273,24.0040421 C92.5045341,26.6014421 95.9737614,32.7333158 96.4396023,37.1254105 C96.4501364,37.2107053 97.30925,45.4457368 97.30925,55.0396421 C97.30925,64.6090105 96.4501364,72.8744211 96.4396023,72.9538737 L96.4396023,72.9538737 Z" id="Fill-1"></path>
                <path d="M65.1194091,25.4166632 C59.0634773,24.9095684 52.7769659,26.8468105 48.3421136,30.5004632 C46.7350795,30.1429263 45.4417273,30.3520737 43.3325682,32.1829895 C40.4345227,34.6997684 39.6140341,37.6465263 40.2882159,39.5720842 C40.6358409,40.5652421 41.9221705,41.4637579 42.9193977,41.4275368 C44.6177273,41.4731053 46.0737727,41.1588 47.9628864,39.6912632 C49.6413182,38.3896421 51.8148523,35.7548526 51.6743977,33.8398105 C55.1635227,31.1197263 60.0162273,29.6860737 64.7319886,30.0739895 C68.1028977,30.3520737 72.8736705,31.6922526 76.4540909,36.4932947 C79.1753977,40.1399368 80.0906932,45.3066947 78.9612045,50.6697474 C77.7626591,56.3517789 74.4830455,61.1995579 70.1804545,63.6415579 C63.1179318,67.6445684 55.4175114,67.6924737 49.6541932,67.6352211 L49.6541932,66.2833579 C61.0567614,65.6676 70.7926023,57.7492105 73.6075455,46.5756 C73.7819432,45.8757158 73.6262727,45.1337684 73.1815,44.5682526 C72.7378977,44.0015684 72.0602045,43.6685684 71.3380341,43.6685684 L23.290875,43.6685684 C22.569875,43.6685684 21.8875,44.0015684 21.4438977,44.5682526 C21.0002955,45.1337684 20.844625,45.8757158 21.0213636,46.5756 C23.8351364,57.7492105 33.5709773,65.6676 44.972375,66.2833579 L44.972375,67.6328842 C39.7790682,67.7053263 35.3758182,68.2778526 35.3758182,72.7283684 C35.3758182,78.1136211 39.1423409,78.4956947 44.972375,78.5225684 L44.972375,79.3054105 L40.0986023,79.3054105 C38.8064205,79.3054105 37.7565227,80.3511474 37.7565227,81.6422526 C37.7565227,82.9310211 38.8064205,83.9790947 40.0986023,83.9790947 L54.7269432,83.9790947 C56.0226364,83.9790947 57.0678523,82.9310211 57.0678523,81.6422526 C57.0678523,80.3511474 56.0226364,79.3054105 54.7269432,79.3054105 L49.6541932,79.3054105 L49.6541932,72.3112421 C55.6317045,72.3568105 64.3761705,72.3065684 72.4921023,67.7053263 C77.9464205,64.6136842 82.0722727,58.6044947 83.5447045,51.6301895 C84.9457386,44.9585053 83.7319773,38.4246947 80.21125,33.7054421 C76.6015682,28.8670105 71.2408864,25.9225895 65.1194091,25.4166632 L65.1194091,25.4166632 Z M26.5166477,48.3399158 L68.1099205,48.3399158 C64.8478636,56.3202316 57.0538068,61.6692632 48.2262386,61.6692632 L46.4026705,61.6692632 C37.5715909,61.6692632 29.7787045,56.3202316 26.5166477,48.3399158 L26.5166477,48.3399158 Z M40.1266932,73.4995263 C40.067,73.4270842 39.8586591,73.1571789 40.0588068,72.8428737 C40.4333523,72.2563263 42.3751364,72.3906947 44.972375,72.3287684 L44.972375,73.8488842 C42.7473409,73.8418737 40.5410341,74.0112947 40.1266932,73.4995263 L40.1266932,73.4995263 Z" id="Fill-2"></path>
            </g>
        </g>
    </g>
</svg>