<svg xmlns="http://www.w3.org/2000/svg" viewBox="0 0 87 94"><g fill="#5CC4CA"><path d="M86.2 31.2c-.5-4.8-4.1-11.1-7.9-14 0 0-5.8-4.3-13-8.5C58 4.4 51.4 1.5 51.4 1.5 49.2.5 46.3 0 43.5 0c-2.8 0-5.8.5-7.9 1.5 0 0-6.5 2.9-13.8 7.2-7.2 4.3-13 8.5-13 8.5-3.9 2.9-7.4 9.2-7.9 14 0 0-.8 7.2-.8 15.8s.8 15.8.8 15.8c.5 4.8 4.1 11.1 7.9 14 0 0 5.8 4.3 13 8.6s13.8 7.2 13.8 7.2c2.2 1 5.1 1.5 7.9 1.5 2.8 0 5.8-.5 7.9-1.5 0 0 6.5-2.9 13.8-7.2 7.2-4.3 13-8.6 13-8.6 3.9-2.9 7.4-9.2 7.9-14 0 0 .8-7.2.8-15.8s-.7-15.8-.7-15.8zm-4 31c-.4 3.8-3.4 9-6.3 11.2-.1 0-5.7 4.2-12.6 8.3-6.9 4.1-13.3 7-13.4 7-1.6.7-3.9 1.1-6.3 1.1s-4.7-.4-6.3-1.1c-.1 0-6.4-2.9-13.4-7-6.9-4.1-12.6-8.3-12.6-8.3-2.9-2.2-6-7.5-6.3-11.2-.3 0-1-7.1-1-15.2s.7-15.3.7-15.3c.4-3.8 3.4-9 6.3-11.2.1 0 5.7-4.2 12.6-8.3s13.3-7 13.4-7c1.7-.8 4-1.2 6.4-1.2 2.4 0 4.7.4 6.3 1.1.1 0 6.4 2.9 13.4 7 6.9 4.1 12.6 8.3 12.6 8.3 3 2.2 6 7.5 6.3 11.2 0 .1.7 7.1.7 15.3s-.5 15.3-.5 15.3z"/><path d="M62.3 41.7c0-2-.2-3.8-1.3-4.6 3.2-2.8 5.9-3.9 6.9-3.6.8.3 1.2 1.2 1.2 1.8 0 .5-.3.6-.4.7-.3.1-.5.1-.6.2-.3-.9-1.3-1.5-2.3-1.3-1.1.2-1.8 1.3-1.5 2.4.1.3.4 1.7 1.9 2.4.4.2 1.1.5 1.9.5.6 0 1.3-.1 2.1-.4 1.8-.7 3-2.4 3-4.4 0-2.4-1.6-4.7-3.8-5.5-4.3-1.6-10 3.2-13 6.2-.2.2-.3.4-.4.6H42.5V21.5c0-.9-.6-1.7-1.5-1.9-1.4-.4-2.9-.5-4.2-.5-9.6 0-17.4 7.8-17.4 17.4 0 5.5 2.7 10.7 7 13.9 4.2 3.4 9 3.5 12.4 3.5L36.5 56c-1.4-.9-3.1-1.4-4.8-1.4-5 0-9.1 4.1-9.1 9.1s4.1 9.1 9.1 9.1 9.1-4.1 9.1-9.1c0-1.8-.5-3.5-1.4-4.9l1.5-1.5v.3c0 9.2 7.5 16.6 16.6 16.6 9.2 0 16.6-7.5 16.6-16.6 0-7.5-4.9-13.8-11.8-15.9zm-39-5.5c0-7.4 6-13.4 13.4-13.4.6 0 1.2 0 1.8.1v15.6c0 .5.2 1 .6 1.4.4.4.9.6 1.4.6h17.9v.4h-.9c-6.3 0-11.8 3.5-14.6 8.7h-3.8c-3.1 0-7 0-10.4-2.7-3.4-2.4-5.4-6.4-5.4-10.7zm13.4 27.4c0 2.8-2.3 5.1-5.1 5.1s-5.1-2.3-5.1-5.1 2.3-5.1 5.1-5.1c.7 0 1.3.1 1.9.4l-3.3 3.3c-.8.8-.8 2 0 2.8.4.4.9.6 1.4.6.5 0 1-.2 1.4-.6l3.3-3.3c.3.6.4 1.2.4 1.9zm20.7 6.6c-7 0-12.6-5.7-12.6-12.6 0-7 5.7-12.6 12.6-12.6 7 0 12.6 5.7 12.6 12.6.1 6.9-5.6 12.6-12.6 12.6z"/><path d="M59.1 47.6h-4c-.7 0-1.3.4-1.7.9-.4.4-.6.9-.6 1.5v11c-.8.3-1.3 1-1.3 1.9 0 .9.6 1.6 1.3 1.9v.1c0 1.1.9 2 2 2s2-.9 2-2h3.1c1.1 0 2-.9 2-2s-.9-2-2-2h-3.1v-.4h2.3c3.5 0 6.4-2.9 6.4-6.4.1-3.6-2.8-6.5-6.4-6.5zm0 8.8h-2.4v-4.8h2.4c1.3 0 2.4 1.1 2.4 2.4 0 1.4-1 2.4-2.4 2.4z"/></g></svg>