<?xml version="1.0" encoding="UTF-8"?>
<svg viewBox="0 0 101 110" version="1.1" xmlns="http://www.w3.org/2000/svg" xmlns:xlink="http://www.w3.org/1999/xlink">
    <!-- Generator: Sketch 42 (36781) - http://www.bohemiancoding.com/sketch -->
        <g id="Стилеобразующие-элементы-услуг" stroke="none" stroke-width="1" fill="none" fill-rule="evenodd">
        <g id="7" transform="translate(-439.000000, -669.000000)" fill="#E77A2B">
            <g id="ohot_federal" transform="translate(439.000000, 669.000000)">
                <path d="M99.960977,37.1556842 C99.3665862,31.5514737 95.2209425,24.2463158 90.7479195,20.922 C90.7479195,20.922 84.0598621,15.9534737 75.6664138,11.0243158 C67.2671609,6.09168421 59.6979655,2.684 59.6979655,2.684 C57.1636782,1.54347368 53.8248736,0.973789474 50.484908,0.973789474 C47.1472644,0.973789474 43.8072989,1.54347368 41.2753333,2.684 C41.2753333,2.684 33.7026552,6.09168421 25.3057241,11.0243158 C16.9087931,15.9534737 10.2242184,20.922 10.2242184,20.922 C5.7511954,24.2463158 1.6043908,31.5514737 1.01232184,37.1556842 C1.01348276,37.1556842 0.12537931,45.5318947 0.12537931,55.3948421 C0.12537931,65.2601053 1.01232184,73.634 1.01232184,73.634 C1.6043908,79.2382105 5.7511954,86.5422105 10.2230575,89.8653684 C10.2230575,89.8653684 16.9087931,94.8350526 25.3057241,99.77 C33.7026552,104.700316 41.2753333,108.108 41.2753333,108.108 C43.8072989,109.248526 47.1472644,109.815895 50.484908,109.815895 C53.8248736,109.815895 57.1636782,109.248526 59.6979655,108.108 C59.6979655,108.108 67.2671609,104.700316 75.6664138,99.77 C84.0598621,94.8350526 90.7479195,89.8653684 90.7479195,89.8653684 C95.2209425,86.5422105 99.3665862,79.2382105 99.960977,73.634 C99.960977,73.634 100.846759,65.2601053 100.846759,55.3948421 C100.846759,45.5318947 99.960977,37.1556842 99.960977,37.1556842 L99.960977,37.1556842 Z M95.3405172,73.1476842 C94.8807931,77.5036842 91.4363448,83.578 87.9721609,86.1508421 C87.9071494,86.1983158 81.3700115,91.0429474 73.3085862,95.7787368 C65.246,100.514526 57.859069,103.855053 57.7882529,103.886316 C55.9505172,104.711895 53.2908506,105.184316 50.484908,105.184316 C47.6801264,105.184316 45.016977,104.711895 43.185046,103.886316 C43.111908,103.855053 35.7470345,100.527263 27.6612299,95.7810526 C19.6021264,91.0429474 13.0615057,86.1983158 12.9964943,86.1508421 C9.53231034,83.578 6.09134483,77.5013684 5.62929885,73.15 C5.62349425,73.0666316 4.76905747,64.8791579 4.76905747,55.3948421 C4.76905747,45.914 5.62349425,37.7230526 5.62929885,37.642 C6.09134483,33.2883158 9.53231034,27.2116842 12.999977,24.6365263 C13.0638276,24.5890526 19.5742644,19.7629474 27.6612299,15.0155789 C35.7226552,10.2797895 43.111908,6.93926316 43.185046,6.90568421 C45.0216207,6.08010526 47.6801264,5.60536842 50.484908,5.60536842 C53.2908506,5.60536842 55.9505172,6.08010526 57.785931,6.90568421 C57.8613908,6.93926316 65.2216207,10.2658947 73.312069,15.0155789 C81.3700115,19.7490526 87.9094713,24.5890526 87.9721609,24.6376842 C91.4363448,27.2116842 94.8807931,33.2883158 95.3405172,37.642 C95.3521264,37.7230526 96.2030805,45.914 96.2030805,55.3948421 C96.2030805,64.8791579 95.3521264,73.0666316 95.3405172,73.1476842 L95.3405172,73.1476842 Z" id="Fill-1"></path>
                <path d="M50.1319885,70.4405263 C47.5675172,70.4405263 45.4883103,72.5143158 45.4883103,75.0721053 C45.4883103,77.6298947 47.5675172,79.7036842 50.1319885,79.7036842 C52.6952989,79.7036842 54.7756667,77.6298947 54.7756667,75.0721053 C54.7756667,72.5143158 52.6952989,70.4405263 50.1319885,70.4405263" id="Fill-2"></path>
                <path d="M42.2296092,59.6512632 C40.6287011,59.6512632 39.3273103,60.9469474 39.3273103,62.546 C39.3273103,64.1427368 40.6287011,65.4407368 42.2296092,65.4407368 C43.8305172,65.4407368 45.133069,64.1427368 45.133069,62.546 C45.133069,60.9469474 43.8305172,59.6512632 42.2296092,59.6512632" id="Fill-3"></path>
                <path d="M57.6918966,59.6512632 C56.0933103,59.6512632 54.7907586,60.9469474 54.7907586,62.546 C54.7907586,64.1427368 56.0933103,65.4407368 57.6918966,65.4407368 C59.2939655,65.4407368 60.5941954,64.1427368 60.5941954,62.546 C60.5941954,60.9469474 59.2939655,59.6512632 57.6918966,59.6512632" id="Fill-4"></path>
                <path d="M73.7857241,46.5948421 C69.4473678,46.5948421 65.3887931,48.3594737 62.4238046,51.4614737 C61.0655287,50.7377895 59.5632989,50.2630526 58.0471379,49.9538947 C61.3441494,48.2077895 63.9829195,45.3941053 65.5083678,41.9794737 C65.809046,41.866 66.0923103,41.6946316 66.3337816,41.4526316 L74.407977,33.3994737 C75.3158161,32.4951579 75.3158161,31.0292632 74.407977,30.1249474 C73.5024598,29.2206316 72.0327356,29.2206316 71.1260575,30.1249474 L66.9595172,34.2806316 L66.9595172,21.5924211 C66.9595172,20.3141053 65.9204943,19.2766316 64.6376782,19.2766316 C63.3548621,19.2766316 62.3158391,20.3141053 62.3158391,21.5924211 L62.3158391,34.0803158 L58.146977,29.9211579 C57.2402989,29.0168421 55.7705747,29.0168421 54.8650575,29.9211579 C53.9572184,30.8254737 53.9572184,32.2913684 54.8650575,33.1956842 L61.421931,39.7401053 C59.6259885,44.1458947 55.2934368,47.2629474 50.2387931,47.2629474 C45.335069,47.2629474 41.1093218,44.3265263 39.2205057,40.1268421 L45.9677701,33.3994737 C46.8744483,32.4951579 46.8744483,31.0292632 45.9677701,30.1249474 C45.0622529,29.2206316 43.5936897,29.2206316 42.6846897,30.1249474 L38.1617471,34.6361053 L38.1617471,21.5924211 C38.1617471,20.3141053 37.1204023,19.2766316 35.839908,19.2766316 C34.557092,19.2766316 33.518069,20.3141053 33.518069,21.5924211 L33.518069,33.7248421 L29.7044483,29.9211579 C28.7977701,29.0168421 27.328046,29.0168421 26.4225287,29.9211579 C25.5146897,30.8254737 25.5146897,32.2913684 26.4225287,33.1956842 L34.2854368,41.0392632 C34.3759885,41.1851579 34.4816322,41.3264211 34.6070115,41.4526316 C34.6673793,41.5116842 34.7358736,41.5568421 34.7985632,41.6066316 C36.2868621,45.1706316 38.9790345,48.1105263 42.3677586,49.9214737 C40.9781379,50.1982105 39.5989655,50.6023158 38.3300805,51.2136842 C35.3836667,48.2598947 31.4133218,46.5948421 27.1898966,46.5948421 C22.3616322,46.5948421 17.8665517,48.7658947 14.8539655,52.5522105 C14.1841149,53.3951579 14.1841149,54.5901053 14.8539655,55.4307368 C17.8665517,59.2170526 22.3616322,61.3881053 27.1898966,61.3881053 C28.9858391,61.3881053 30.7353448,61.0847368 32.3815287,60.5127368 C32.362954,60.8357895 32.3501839,61.1634737 32.3501839,61.5050526 L32.3501839,72.1078947 C32.3501839,81.8863158 40.328023,89.8422105 50.1319885,89.8422105 C59.9347931,89.8422105 67.9126322,81.8863158 67.9126322,72.1078947 L67.9126322,61.5050526 C67.9126322,61.0581053 67.8894138,60.6285263 67.858069,60.2116842 C69.7167011,60.9666316 71.7158046,61.3881053 73.7857241,61.3881053 C78.6105057,61.3881053 83.1067471,59.2170526 86.1181724,55.4307368 C86.7903448,54.5877895 86.7903448,53.3951579 86.1181724,52.5522105 C83.1067471,48.7658947 78.6128276,46.5948421 73.7857241,46.5948421 L73.7857241,46.5948421 Z M19.8586897,53.9926316 C21.8705632,52.2175789 24.455931,51.2264211 27.1898966,51.2264211 C29.9227011,51.2264211 32.506908,52.2175789 34.5187816,53.9926316 C32.5045862,55.7676842 29.9227011,56.7565263 27.1898966,56.7565263 C24.455931,56.7565263 21.8728851,55.7676842 19.8586897,53.9926316 L19.8586897,53.9926316 Z M63.268954,72.1078947 C63.268954,79.3331579 57.3761264,85.2106316 50.1319885,85.2106316 C42.8878506,85.2106316 36.995023,79.3331579 36.995023,72.1078947 L36.995023,61.5050526 C36.995023,55.8904211 40.3094483,53.9926316 50.1319885,53.9926316 C59.9533678,53.9926316 63.268954,55.8904211 63.268954,61.5050526 L63.268954,72.1078947 L63.268954,72.1078947 Z M73.7857241,56.7565263 C71.0505977,56.7565263 68.4687126,55.7676842 66.4545172,53.9926316 C68.4652299,52.2175789 71.0505977,51.2264211 73.7857241,51.2264211 C76.5173678,51.2264211 79.1027356,52.2175789 81.1134483,53.9926316 C79.1004138,55.7676842 76.5173678,56.7565263 73.7857241,56.7565263 L73.7857241,56.7565263 Z" id="Fill-5"></path>
            </g>
        </g>
    </g>
</svg>