<svg xmlns="http://www.w3.org/2000/svg" viewBox="0 0 234 256"><path fill="#778089" d="M231.8 84.9c-1.3-13.1-11.1-30.2-21.3-38.1 0 0-15.6-11.7-35-23.1C156.1 12 138.3 4.1 138.3 4.1 132.4 1.4 124.5 0 117 0c-7.8 0-15.6 1.4-21.3 4.1 0 0-17.5 7.9-37.2 19.6-19.4 11.7-35 23.1-35 23.1C13 54.7 3.6 71.8 2.2 84.9c0 0-2.2 19.6-2.2 43 0 23.1 2.2 43 2.2 43C3.5 184 13.3 201.1 23.5 209c0 0 15.6 11.7 35 23.4S95.7 252 95.7 252c5.9 2.7 13.8 4.1 21.3 4.1 7.8 0 15.6-1.4 21.3-4.1 0 0 17.5-7.9 37.2-19.6 19.4-11.7 35-23.4 35-23.4 10.5-7.9 19.9-25 21.3-38.1 0 0 2.2-19.6 2.2-43 0-23.2-2.2-43-2.2-43zm-10.7 84.6c-1.1 10.3-9.2 24.5-17 30.5-.3 0-15.4 11.4-34 22.6-18.6 11.2-35.9 19-36.1 19-4.3 1.9-10.5 3-17 3s-12.7-1.1-17-3c-.3 0-17.3-7.9-36.1-19-18.6-11.2-34-22.6-34-22.6-8.1-6-15.9-20.4-17-30.5-.3 0-2.2-19.3-2.2-41.6s1.9-41.6 1.9-41.6c1.1-10.3 9.2-24.5 17-30.5.3 0 15.4-11.4 34-22.6 18.6-11.2 35.9-19 36.1-19 4.6-2.2 10.8-3.3 17.3-3.3s12.7 1.1 17 3c.3 0 17.3 7.9 36.1 19 18.6 11.2 34 22.6 34 22.6 8.1 6 15.9 20.4 17 30.5 0 .3 1.9 19.3 1.9 41.6.2 22.6-1.9 41.9-1.9 41.9z"/><path fill="#778089" d="M160.2 98.3V70.4c0-2.8-2.2-5-4.9-5s-4.9 2.2-4.9 5v3.1L116 98.3H55.5c-2.7 0-4.9 2.2-4.9 5v44.9c0 2.8 2.2 5 4.9 5H64v19c0 2.8 2.2 5 4.9 5s4.9-2.2 4.9-5v-19h42l34.4 24.8v2.9c0 2.8 2.2 5 4.9 5s4.9-2.2 4.9-5v-35.5c10.9-2.2 18.9-11.8 18.9-23.5.1-11.9-7.8-21.4-18.7-23.6zm-47.6 44.9H60.4v-34.9h52.1v34.9zm37.7 22.5l-27.9-20.1v-39.8l27.9-20.1v80zm9.9-30.7v-26.3c5.3 2 9 7 9 13.2 0 6-3.7 11.1-9 13.1z"/></svg>