<svg xmlns="http://www.w3.org/2000/svg" viewBox="0 0 105 113"><g fill="#0A855E"><path d="M103.1 37.5c-.6-5.8-4.9-13.3-9.5-16.7 0 0-6.9-5.1-15.5-10.2S61.7 2 61.7 2C59.1.8 55.7.2 52.2.2c-3.4 0-6.9.6-9.5 1.8 0 0-7.8 3.5-16.4 8.6-8.6 5.1-15.5 10.2-15.5 10.2C6.3 24.2 2 31.7 1.4 37.5c0 0-.9 8.6-.9 18.7 0 10.2.9 18.8.9 18.8.6 5.8 4.9 13.3 9.5 16.7 0 0 6.9 5.1 15.5 10.2s16.4 8.6 16.4 8.6c2.6 1.2 6 1.8 9.5 1.8 3.4 0 6.9-.6 9.5-1.8 0 0 7.8-3.5 16.4-8.6 8.6-5.1 15.5-10.2 15.5-10.2 4.6-3.4 8.9-10.9 9.5-16.7 0 0 .9-8.6.9-18.7-.1-10.2-1-18.8-1-18.8zm-4.7 37c-.5 4.5-4 10.7-7.6 13.4-.1 0-6.8 5-15.1 9.9s-15.9 8.3-15.9 8.3c-1.9.8-4.6 1.3-7.5 1.3s-5.6-.5-7.5-1.3c-.1 0-7.6-3.5-16-8.3-8.3-4.9-15-9.8-15.1-9.9-3.6-2.6-7.1-8.9-7.6-13.4 0-.1-.9-8.5-.9-18.2s.9-18.2.9-18.2c.5-4.5 4-10.7 7.6-13.4.1-.1 6.8-5 15.1-9.9s15.9-8.3 16-8.3c1.9-.8 4.6-1.3 7.5-1.3 2.9 0 5.6.5 7.5 1.3.1 0 7.7 3.5 16 8.3 8.3 4.9 15 9.8 15.1 9.9 3.6 2.6 7.1 8.9 7.6 13.4 0 .1.9 8.5.9 18.2-.1 9.7-1 18.1-1 18.2z"/><path d="M51 80c-5.2 0-9.5-4.3-9.5-9.5S45.8 61 51 61c.4 0 .9.1 1.2.4h33.2c1.1 0 2 .9 2 2s-.9 2-2 2H49.8c-.2 0-.4 0-.6-.1-2.2.7-3.7 2.8-3.7 5.2 0 3 2.5 5.5 5.5 5.5s5.5-2.5 5.5-5.5c0-1.1.9-2 2-2s2 .9 2 2c0 5.3-4.3 9.5-9.5 9.5zM27.1 62.2c-5.2 0-9.5-4.3-9.5-9.5s4.3-9.5 9.5-9.5 9.5 4.3 9.5 9.5c0 1.1-.9 2-2 2s-2-.9-2-2c0-3-2.5-5.5-5.5-5.5s-5.5 2.5-5.5 5.5c0 2.4 1.6 4.5 3.7 5.2.2-.1.4-.1.6-.1H41c1.1 0 2 .9 2 2s-.9 2-2 2H28.3c-.3.2-.8.4-1.2.4zm26.3-5.9c-1.2 0-2.3-.1-3.3-.4h-.2c-.5 0-.9-.2-1.3-.4-5.5-2-9.5-7.3-9.5-13.5 0-7.9 6.4-14.3 14.3-14.3S67.7 34.1 67.7 42c0 1.1-.9 2-2 2s-2-.9-2-2c0-5.7-4.6-10.3-10.3-10.3-5.7 0-10.3 4.6-10.3 10.3 0 4.7 3.2 8.7 7.5 9.9h34.8c1.1 0 2 .9 2 2s-.9 2-2 2H54.6c-.3.3-.8.4-1.2.4z"/></g></svg>