<svg xmlns="http://www.w3.org/2000/svg" viewBox="0 0 100 108"><path fill="#0A855E" d="M98.2 35.8c-.6-5.5-4.6-12.7-9-15.9 0 0-6.5-4.9-14.8-9.7C66.2 5.3 58.8 2 58.8 2 56.3.9 53.1.3 49.8.3s-6.5.6-9 1.7c0 0-7.4 3.3-15.6 8.2-8.2 4.8-14.8 9.7-14.8 9.7C6 23.2 2 30.3 1.4 35.8c0 0-.9 8.2-.9 17.9s.9 17.9.9 17.9c.6 5.5 4.6 12.7 9 15.9 0 0 6.5 4.9 14.8 9.7 8.2 4.8 15.6 8.2 15.6 8.2 2.5 1.1 5.7 1.7 9 1.7s6.5-.6 9-1.7c0 0 7.4-3.3 15.6-8.2 8.2-4.8 14.8-9.7 14.8-9.7 4.4-3.3 8.4-10.4 9-15.9 0 0 .9-8.2.9-17.9 0-9.6-.9-17.9-.9-17.9zm-4.5 35.4c-.5 4.3-3.8 10.2-7.2 12.8-.1 0-6.5 4.8-14.4 9.5-7.9 4.6-15.1 7.9-15.2 8-1.8.8-4.4 1.3-7.1 1.3-2.7 0-5.4-.5-7.1-1.3-.1 0-7.3-3.3-15.2-8-7.9-4.7-14.3-9.4-14.4-9.5-3.4-2.5-6.8-8.5-7.2-12.8 0-.1-.9-8.2-.9-17.5s.8-17.4.8-17.4C6.3 32 9.6 26.1 13 23.5c.1 0 6.5-4.8 14.4-9.4 7.9-4.7 15.1-7.9 15.2-8 1.8-.8 4.4-1.3 7.1-1.3 2.7 0 5.3.5 7.1 1.3.1 0 7.3 3.3 15.2 8 7.9 4.6 14.3 9.4 14.4 9.4 3.4 2.5 6.8 8.5 7.2 12.8 0 .1.8 8.1.8 17.4.1 9.3-.7 17.4-.7 17.5z"/><path fill="#0A855E" d="M49.7 85c-17.2 0-31.3-14-31.3-31.3s14-31.3 31.3-31.3v4c-15 0-27.3 12.2-27.3 27.3S34.7 81 49.7 81c12.2 0 22.6-8.1 26.1-19.2-5.5 3.8-15 6.2-26.1 6.2-4.4 0-8.6-.4-12.6-1.2l.8-3.9c3.7.7 7.7 1.1 11.9 1.1 16 0 27.2-5.4 27.2-10.3 0-3.6-6.3-7.4-15.4-9.2l.8-3.9C73.8 42.9 81 47.9 81 53.7 81 71 67 85 49.7 85z"/><path fill="#0A855E" d="M38.4 67.1c-.5 0-1-.2-1.3-.5-.1-.1-.2-.1-.3-.2-.5-.5-.7-1.3-.5-1.9-.5-3.4-.8-7-.8-10.7 0-17.8 6.1-31.3 14.2-31.3 5.9 0 10.9 7.2 13.1 18.9.2.4.2.8.1 1.2-.1.7-.5 1.3-1.1 1.6L40.4 65.6c-.2.7-.8 1.3-1.6 1.5h-.4zm11.3-40.7c-4.8 0-10.2 11.2-10.2 27.3 0 2.3.1 4.6.3 6.8l19-19c-1.8-8.9-5.4-15.1-9.1-15.1z"/><path fill="#FFF" d="M45.9 51c0-3.4 2.8-6.2 6.2-6.2s6.2 2.8 6.2 6.2c0 3.5-2.8 6.2-6.2 6.2s-6.2-2.7-6.2-6.2z"/><path fill="#0A855E" d="M52.2 59.3c-4.5 0-8.2-3.7-8.2-8.2 0-4.5 3.7-8.2 8.2-8.2s8.2 3.7 8.2 8.2c0 4.5-3.7 8.2-8.2 8.2zm0-12.5c-2.3 0-4.2 1.9-4.2 4.2 0 2.3 1.9 4.2 4.2 4.2 2.3 0 4.2-1.9 4.2-4.2 0-2.3-1.9-4.2-4.2-4.2z"/></svg>