<svg xmlns="http://www.w3.org/2000/svg" viewBox="0 0 103 111"><g fill="#0A855E"><path d="M101.2 36.8c-.6-5.7-4.8-13-9.3-16.4 0 0-6.7-5-15.2-10C68.2 5.5 60.6 2 60.6 2 58 .9 54.7.3 51.3.3 47.9.3 44.6.9 42 2c0 0-7.6 3.4-16.1 8.4-8.5 5-15.2 10-15.2 10C6.2 23.8 2 31.2 1.4 36.8c0 0-.9 8.5-.9 18.4 0 10 .9 18.4.9 18.4.6 5.7 4.8 13 9.3 16.4 0 0 6.7 5 15.2 10s16.1 8.4 16.1 8.4c2.6 1.1 5.9 1.7 9.3 1.7 3.4 0 6.7-.6 9.3-1.7 0 0 7.6-3.4 16.1-8.4 8.5-5 15.2-10 15.2-10 4.5-3.4 8.7-10.7 9.3-16.4 0 0 .9-8.5.9-18.4 0-9.9-.9-18.4-.9-18.4zm-4.7 36.3c-.5 4.4-3.9 10.5-7.4 13.1-.1 0-6.7 4.9-14.8 9.7-8.1 4.8-15.6 8.1-15.6 8.2-1.9.8-4.5 1.3-7.4 1.3-2.8 0-5.5-.5-7.4-1.3-.1 0-7.5-3.4-15.6-8.2-8.1-4.8-14.7-9.7-14.8-9.7-3.5-2.6-7-8.7-7.4-13.1 0-.1-.9-8.3-.9-17.9 0-9.6.9-17.8.9-17.9.5-4.4 3.9-10.5 7.4-13.1.1-.1 6.7-4.9 14.8-9.7 8.1-4.8 15.6-8.2 15.6-8.2 1.9-.8 4.6-1.3 7.4-1.3 2.8 0 5.5.5 7.4 1.3.1 0 7.5 3.4 15.7 8.2 8.1 4.8 14.7 9.7 14.8 9.7 3.5 2.6 7 8.7 7.4 13.1 0 .1.9 8.3.9 17.9-.1 9.6-1 17.9-1 17.9z"/><path d="M51.2 81.2c-11.8 0-21.3-9.5-21.3-21.3 0-4.8 3.4-12.2 10-21.8 4.8-7 9.6-12.6 9.8-12.8l1.5-1.8 1.5 1.8c.2.2 4.9 5.8 9.8 12.8 6.6 9.6 10 16.9 10 21.8 0 11.7-9.5 21.3-21.3 21.3zm0-51.5c-6 7.3-17.3 22.7-17.3 30.2 0 9.5 7.8 17.3 17.3 17.3s17.3-7.8 17.3-17.3c0-7.4-11.3-22.9-17.3-30.2z"/><path d="M51.3 72.1c-1.1 0-2-.9-2-2s.9-2 2-2c3.7 0 6.7-3 6.7-6.7 0-1.1.9-2 2-2s2 .9 2 2c0 5.9-4.8 10.7-10.7 10.7z"/></g></svg>