<svg viewBox="0 0 102 109" xmlns="http://www.w3.org/2000/svg"><g fill="#707A7E" fill-rule="evenodd"><path d="M100.653 36.185c-.593-5.605-4.73-12.91-9.197-16.234 0 0-6.677-4.968-15.058-9.894-8.385-4.935-15.944-8.344-15.944-8.344-2.528-1.14-5.86-1.71-9.196-1.71-3.332 0-6.667.57-9.196 1.71 0 0-7.56 3.41-15.943 8.344-8.385 4.926-15.06 9.895-15.06 9.895-4.465 3.326-8.606 10.63-9.196 16.235 0 0-.886 8.376-.886 18.24 0 9.863.886 18.24.886 18.24.59 5.602 4.73 12.906 9.195 16.228 0 0 6.675 4.973 15.06 9.908 8.38 4.93 15.942 8.337 15.942 8.337 2.53 1.138 5.864 1.708 9.196 1.708 3.335 0 6.668-.57 9.196-1.708 0 0 7.56-3.408 15.942-8.336 8.383-4.934 15.06-9.907 15.06-9.907 4.466-3.322 8.604-10.626 9.197-16.228 0 0 .886-8.377.886-18.24 0-9.864-.887-18.24-.887-18.24zm-4.608 35.992c-.463 4.356-3.902 10.43-7.36 13.003-.067.048-6.592 4.892-14.64 9.63-8.05 4.73-15.424 8.073-15.495 8.105-1.833.826-4.49 1.298-7.292 1.298-2.8 0-5.458-.472-7.29-1.298-.072-.033-7.424-3.36-15.495-8.105-8.05-4.738-14.577-9.582-14.643-9.63-3.458-2.575-6.895-8.65-7.355-13-.008-.082-.86-8.274-.86-17.756 0-9.482.852-17.674.86-17.755.46-4.353 3.897-10.43 7.358-13.002.063-.05 6.59-4.89 14.64-9.62 8.048-4.74 15.423-8.08 15.496-8.113 1.833-.826 4.49-1.3 7.288-1.3 2.8 0 5.456.474 7.288 1.3.075.03 7.448 3.374 15.5 8.112 8.048 4.73 14.576 9.57 14.64 9.62 3.457 2.574 6.896 8.65 7.356 13.002.01.08.86 8.272.86 17.754 0 9.482-.85 17.674-.857 17.753z"/><path d="M78.162 27.256h-.99c.597-.42.99-1.11.99-1.893 0-1.278-1.04-2.316-2.318-2.316h-3.92c-1.277 0-2.317 1.038-2.317 2.316 0 .784.393 1.474.99 1.893H62.62c.596-.42.987-1.11.987-1.893 0-1.278-1.036-2.316-2.318-2.316h-3.917c-1.28 0-2.32 1.038-2.32 2.316.002.784.393 1.474.99 1.893h-7.977c.597-.42.99-1.11.99-1.893 0-1.278-1.04-2.316-2.318-2.316h-3.92c-1.28 0-2.317 1.038-2.317 2.316 0 .784.393 1.474.99 1.893h-7.977c.597-.42.99-1.11.99-1.893-.002-1.278-1.04-2.316-2.32-2.316h-3.916c-1.282 0-2.318 1.038-2.318 2.316 0 .784.39 1.474.986 1.893h-2.58c-1.28 0-2.32 1.036-2.32 2.316v29.5c0 1.277 1.04 2.315 2.32 2.315h20.623v16.816H38.9c-1.28 0-2.318 1.037-2.318 2.316 0 1.278 1.04 2.315 2.318 2.315h23.954c1.28 0 2.318-1.037 2.318-2.316 0-1.28-1.037-2.317-2.318-2.317h-5.316V61.387h20.624c1.28 0 2.318-1.038 2.318-2.315v-29.5c0-1.28-1.037-2.316-2.318-2.316zM49.615 61.914h3.287v16.29h-3.287v-16.29zM26.673 31.888h49.17v24.867h-49.17V31.888z"/></g></svg>