<svg xmlns="http://www.w3.org/2000/svg" viewBox="0 0 100 108"><path fill="#707A7E" d="M98.8 35.9c-.6-5.6-4.7-12.8-9.1-16.1 0 0-6.6-4.9-14.9-9.8S59 1.7 59 1.7C56.5.6 53.2 0 49.9 0s-6.6.6-9.1 1.7c0 0-7.5 3.4-15.8 8.3-8.4 4.8-15 9.8-15 9.8C5.6 23.1 1.5 30.3.9 35.9c0 0-.9 8.3-.9 18.1 0 9.7.9 18 .9 18 .6 5.6 4.7 12.8 9.1 16.1 0 0 6.6 4.9 14.9 9.8s15.8 8.3 15.8 8.3c2.5 1.1 5.8 1.7 9.1 1.7s6.6-.6 9.1-1.7c0 0 7.5-3.4 15.8-8.3s14.9-9.8 14.9-9.8c4.4-3.3 8.5-10.5 9.1-16.1 0 0 .9-8.3.9-18.1.1-9.7-.8-18-.8-18zm-4.5 35.6c-.5 4.3-3.9 10.3-7.3 12.9-.1 0-6.5 4.8-14.5 9.5s-15.3 8-15.4 8c-1.8.8-4.5 1.3-7.2 1.3s-5.4-.5-7.2-1.3c-.1 0-7.4-3.3-15.4-8s-14.5-9.5-14.5-9.5C9.4 81.8 6 75.8 5.5 71.5c0-.1-.9-8.2-.9-17.6s.8-17.5.9-17.6C5.9 32 9.3 26 12.7 23.4c.1 0 6.5-4.8 14.5-9.5s15.3-8 15.4-8c1.8-.8 4.5-1.3 7.2-1.3 2.8 0 5.4.5 7.2 1.3.1 0 7.4 3.3 15.4 8s14.5 9.5 14.5 9.5c3.4 2.6 6.8 8.6 7.3 12.9 0 .1.9 8.2.9 17.6s-.8 17.5-.8 17.6z"/><path fill="#707A7E" d="M70.1 75.4c-1.1 0-2-.9-2-2V37.9c0-1.1.9-2 2-2s2 .9 2 2v35.6c0 1-.9 1.9-2 1.9zm-11.5 0c-1.1 0-2-.9-2-2V48.2c0-1.1.9-2 2-2s2 .9 2 2v25.2c0 1.1-.9 2-2 2zm-11.5 0c-1.1 0-2-.9-2-2V59.7c0-1.1.9-2 2-2s2 .9 2 2v13.8c0 1-.9 1.9-2 1.9zM52.3 37c-.3-.7-1-1.2-1.8-1.2H21.2c-.8 0-1.5.5-1.8 1.2-.3.8-.1 1.6.4 2.2l13.8 15v19.2c0 1.1.9 2 2 2s2-.9 2-1.9V54.2l14.3-15c.6-.6.7-1.5.4-2.2zm-26.4 2.9h7.7v8.3l-7.7-8.3zm11.7 8.6v-8.6h8.3l-8.3 8.6z"/></svg>