<svg xmlns="http://www.w3.org/2000/svg" viewBox="0 0 87 94"><path fill="#0066b3" d="M86.2 31.2c-.5-4.8-4.1-11.1-7.9-14 0 0-5.8-4.3-13-8.5C58 4.4 51.4 1.5 51.4 1.5 49.2.5 46.3 0 43.5 0c-2.9 0-5.8.5-7.9 1.5 0 0-6.5 2.9-13.8 7.2-7.2 4.3-13 8.5-13 8.5-3.9 2.9-7.4 9.2-7.9 14 0 0-.8 7.2-.8 15.8 0 8.5.8 15.8.8 15.8.5 4.8 4.1 11.1 7.9 14 0 0 5.8 4.3 13 8.6s13.8 7.2 13.8 7.2c2.2 1 5.1 1.5 7.9 1.5 2.9 0 5.8-.5 7.9-1.5 0 0 6.5-2.9 13.8-7.2 7.2-4.3 13-8.6 13-8.6 3.9-2.9 7.4-9.2 7.9-14 0 0 .8-7.2.8-15.8.1-8.5-.7-15.8-.7-15.8zm-4 31c-.4 3.8-3.4 9-6.3 11.2-.1 0-5.7 4.2-12.6 8.3-6.9 4.1-13.3 7-13.4 7-1.6.7-3.9 1.1-6.3 1.1s-4.7-.4-6.3-1.1c-.1 0-6.4-2.9-13.4-7-6.9-4.1-12.6-8.3-12.6-8.3-3-2.2-5.9-7.4-6.3-11.2 0-.1-.7-7.1-.7-15.3S5 31.6 5 31.6c.4-3.8 3.4-9 6.3-11.2.1 0 5.7-4.2 12.6-8.3s13.3-7 13.4-7c1.6-.7 3.9-1.1 6.3-1.1s4.7.4 6.3 1.1c.1 0 6.4 2.9 13.4 7 6.9 4.1 12.6 8.3 12.6 8.3 3 2.2 5.9 7.5 6.3 11.2 0 .1.7 7.1.7 15.3.1 8.2-.6 15.3-.7 15.3z"/><path fill="#0066b3" d="M53.8 38.3h-20c-1.1 0-2-.9-2-2s.9-2 2-2h20c1.1 0 2 .9 2 2s-.9 2-2 2zM53.8 47.3h-20c-1.1 0-2-.9-2-2s.9-2 2-2h20c1.1 0 2 .9 2 2s-.9 2-2 2zM59.7 52.1c4.4 0 8 3.6 8 8s-3.6 8-8 8-8-3.6-8-8 3.6-8 8-8m0-4c-6.6 0-12 5.4-12 12s5.4 12 12 12 12-5.4 12-12-5.4-12-12-12z"/><path fill="#0066b3" d="M64.3 62.6l-2.5-2.5 2.5-2.5c.6-.6.6-1.5 0-2.1-.6-.6-1.5-.6-2.1 0L59.7 58l-2.5-2.5c-.6-.6-1.5-.6-2.1 0-.6.6-.6 1.5 0 2.1l2.5 2.5-2.5 2.5c-.6.6-.6 1.5 0 2.1.6.6 1.5.6 2.1 0l2.5-2.5 2.5 2.5c.6.6 1.5.6 2.1 0 .6-.6.6-1.6 0-2.1z"/><path fill="#0066b3" d="M49.4 66.3H28.8v-37h31v19c1.4 0 2.7.3 4 .7V27.2c0-1.1-.9-2-2-2h-35c-1.1 0-2 .9-2 2v41c0 1.1.9 2 2 2h26.5c-1.6-1-2.9-2.3-3.9-3.9z"/></svg>