<svg xmlns="http://www.w3.org/2000/svg" viewBox="0 0 87 94"><path fill="#287DB2" d="M86.2 31.2c-.5-4.8-4.1-11.1-7.9-14 0 0-5.8-4.3-13-8.5C58 4.4 51.4 1.5 51.4 1.5 49.2.5 46.3 0 43.5 0c-2.9 0-5.8.5-7.9 1.5 0 0-6.5 2.9-13.8 7.2-7.2 4.3-13 8.5-13 8.5-3.9 2.9-7.4 9.2-7.9 14 0 0-.8 7.2-.8 15.8 0 8.5.8 15.8.8 15.8.5 4.8 4.1 11.1 7.9 14 0 0 5.8 4.3 13 8.6s13.8 7.2 13.8 7.2c2.2 1 5.1 1.5 7.9 1.5 2.9 0 5.8-.5 7.9-1.5 0 0 6.5-2.9 13.8-7.2 7.2-4.3 13-8.6 13-8.6 3.9-2.9 7.4-9.2 7.9-14 0 0 .8-7.2.8-15.8.1-8.5-.7-15.8-.7-15.8zm-4 31c-.4 3.8-3.4 9-6.3 11.2-.1 0-5.7 4.2-12.6 8.3-6.9 4.1-13.3 7-13.4 7-1.6.7-3.9 1.1-6.3 1.1s-4.7-.4-6.3-1.1c-.1 0-6.4-2.9-13.4-7-6.9-4.1-12.6-8.3-12.6-8.3-3-2.2-5.9-7.4-6.3-11.2 0-.1-.7-7.1-.7-15.3S5 31.6 5 31.6c.4-3.8 3.4-9 6.3-11.2.1 0 5.7-4.2 12.6-8.3s13.3-7 13.4-7c1.6-.7 3.9-1.1 6.3-1.1s4.7.4 6.3 1.1c.1 0 6.4 2.9 13.4 7 6.9 4.1 12.6 8.3 12.6 8.3 3 2.2 5.9 7.5 6.3 11.2 0 .1.7 7.1.7 15.3.1 8.2-.6 15.3-.7 15.3z"/><path fill="#287DB2" d="M63.2 50.2c4.4 0 8 3.6 8 8s-3.6 8-8 8-8-3.6-8-8 3.5-8 8-8m0-4c-6.6 0-12 5.4-12 12s5.4 12 12 12 12-5.4 12-12-5.4-12-12-12z"/><path fill="#287DB2" d="M67.7 60.6l-2.5-2.5 2.5-2.5c.6-.6.6-1.5 0-2.1-.6-.6-1.5-.6-2.1 0L63.2 56l-2.5-2.5c-.6-.6-1.5-.6-2.1 0-.6.6-.6 1.5 0 2.1l2.5 2.5-2.5 2.5c-.6.6-.6 1.5 0 2.1.6.6 1.5.6 2.1 0l2.5-2.5 2.5 2.5c.6.6 1.5.6 2.1 0 .5-.5.5-1.5-.1-2.1z"/><circle fill="#287DB2" cx="42.5" cy="28.1" r="2"/><circle fill="#287DB2" cx="56.6" cy="34.2" r="2"/><circle fill="#287DB2" cx="29.6" cy="60.2" r="2"/><circle fill="#287DB2" cx="43.1" cy="66.2" r="2"/><circle fill="#287DB2" cx="23.7" cy="47.2" r="2"/><path fill="#287DB2" d="M52.5 41.3l-2.1-2.1-7.4 7.3-13.4-13.4-2.1 2.1 15.6 15.5"/><path fill="#287DB2" d="M55.4 67.2c-3.7 2.4-8.2 3.8-12.9 3.8-13.2 0-24-10.8-24-24s10.8-24 24-24c13.1 0 23.8 10.5 24 23.6 1.5.4 2.8 1.1 4 2v-1.5c0-15.5-12.5-28-28-28s-28 12.5-28 28 12.5 28 28 28c6.3 0 12.1-2.1 16.8-5.6-1.5-.6-2.8-1.3-3.9-2.3z"/></svg>