<svg viewBox="0 0 74 80" xmlns="http://www.w3.org/2000/svg"><g fill="#0066b3" fill-rule="evenodd"><path d="M39.038 28.348c.256.24.512.48 1.025.722-.513.48-1.538.962-2.307.72.256.242.77.483 1.025.483-.768 1.203-1.536 2.406-1.536 4.09-.513-1.443-1.025-3.128-1.538-4.09.513 0 .77 0 1.025-.482-1.024 0-1.793-.24-2.305-.72.512-.24.77-.482 1.025-.722-.513.24-1.025.24-1.537.24.768-.24 1.793-.722 1.793-1.203-.256.24-1.537.24-2.306.24 1.28-.24 2.562-.962 3.33-1.443h1.54c.51.48 2.05 1.203 3.33 1.444-.77 0-2.05 0-2.306-.24 0 .48 1.025.962 1.793 1.202-1.024 0-1.537-.24-2.05-.24zm2.376 28.358c.283.21.283.84-.283.84-.282-.63-.565-1.05-1.13-1.47-.284-.42-.85-.838-1.133-1.258.566.84 2.264 1.47 2.547 1.888zm-3.027 3.567c0-.787 0-2.36-.415-3.41-.208-.524-.623-3.146-.415-3.408 0 1.05.415 2.36.83 3.67.415.525.83 2.623 0 3.148zm-1.35-3.283c-.21 1.01-.42 2.778-.42 3.283-.838-.505-.42-2.526 0-3.283.42-1.263.84-2.525.84-3.535.21.505-.42 2.777-.42 3.535zm-2.036-.913c-.565.42-.848.84-1.13 1.468-.567 0-.567-.63-.284-.84.283-.418 1.98-1.257 2.547-1.887-.283.42-.85 1.05-1.132 1.26zm7.815 2.832c.405.908 0 1.363-1.215 1.363v-.91c.405 0 .81 0 1.215-.454zM33.4 60.272c-.837 0-1.674-.455-1.255-1.364.418.454.836.454 1.255.454v.91zm-5.648-5.455c-.512 0-1.024-.242-1.28-.727-.255-.484-.51-.726-1.023-.484h-.512s0-.242-.256-.242c0-.243 0-.485-.256-.728 0-.484-.256-.484-.512-.727v-.243h-.256c0-.243 0-.485-.255-.485L21.1 46.576c.512 0 1.023.242 1.535 0 .256-.243 2.047-2.425 2.303-2.667 0 .24-1.28 1.696-2.047 2.666-.51.727.257.97.257 1.454.51-.242 1.023 0 1.28-.485.255-.484 1.278-2.18 1.534-2.666-.255.484-1.022 2.423-1.278 2.665-.256.728.256.728.51 1.213.257-.243 1.025 0 1.28-.728.256-.485.512-1.94.768-2.424 0 .485-.256.97-.256 1.697 0 .727.512.727 1.024.97.255-.243 1.023-.243 1.023-.728v-1.94s.257 0 .257.243c.256-.242.767-.242.767-.484h.256c.512.727.512 2.424-.256 2.91h.512c-.256.726-1.023.968-1.79.484V49c-1.024.242-1.28.485-1.536.97-.512.727 0 1.697 0 1.94 0 .242-.512.484-.768.242.256.97 1.536.727 1.79.242 0 .485 0 .97-.254 1.212.51 0 .767-.242 1.023-.485v.244c.257 0 .257-.243.513-.243v.486c-.256 0-.256.243-.512.243.257.483-.767.968-1.278.968zM21.23 44.28s-.29 0 0 0c0-.247 0-.247 0 0 0-.247.288-.247.288-.247.58-.248 1.447-.992 2.315-1.488-.29.248-1.447.992-2.026 1.488-.578.496-.29.744-.29 1.24l-.288-.496c.288-.248 0-.496 0-.496zm-1.497-.37c-.307-.183 0-.183 0 0zm-1.366-1.365c-.137 0-.137-.136-.137-.136h.137v.135zm2.596-.136h.137s0 .18-.137 0c0 .18 0 .18 0 0zm-1.23 0c-.182 0-.182 0 0 0-.182 0 0 0 0 0zM58 36.664c-.516-.256-1.547-.256-2.32-.256 1.29-.512 2.32-1.535 2.32-2.302-.774-.256-1.547 0-2.063 0 .774-.51 1.805-1.278 1.547-2.557-.515-.254-1.805.257-2.32.513 1.547-.767 2.062-2.813 1.29-4.09-.517.254-2.58 2.555-3.096 2.81 1.032-1.277 1.548-2.3 2.063-3.067.26-1.023.26-2.557-.772-3.068-.516 1.278-2.58 4.602-3.61 5.88l-.258-.255c-.258.767-1.032 2.045-1.805 2.3 0 0 0-.255-.258-.51-.774 1.022-2.58 2.556-3.352 3.58-.516.766-.516 1.278.258 2.045.257.255.773.767.257 1.278-.773 1.023-2.32 1.023-2.836 0 1.03 0 1.29-1.278.774-2.045-.258.512-.774.768-1.548.512-.257-.256-.773-.256-.773-.51.773.254 1.547-.257 1.547-1.024-.774.51-1.29 0-1.547 0-.516-.512-.516-1.023-.258-1.79.257-.767.773-1.79 1.288-2.3 0 0 .258.255.516.255s.516-.256.516-.256c.515-.256 1.03 0 1.29.256.515.255.515.767.515 1.022.773-.51.515-1.278-.516-1.534.773 0 1.546.768 1.546.768.516.256 1.032.256 1.547 0 .774-.255.774-1.022.774-1.278 0 .256-.258.51-.774.51-.515 0-1.29-.254-1.547-.254-.258-.256-1.03-.256-1.547-.256.773-.512 2.062-.512 2.578.256.257-.256.515-.512.515-.768.258-1.278-.773-1.79-1.547-1.79 0-.255-.258-.51-.516-.255 0 0 0-.256-.257-.256 1.03 0 2.062-.51 2.32-1.022.774-1.023-.515-2.046 0-3.07.516.257.774.513 1.548.513 0 .255 0 .51.258.51.258 1.024-.773 1.28-.515 2.302 0 .512.515.767.515 1.28 0 0 0 .51-.257.766.774 0 1.29-.767 1.032-1.28 0-.254-.516-.51-.516-.766.516.512.774.512 1.547.256.258 0 .258.256.258.767.517-.256.517-.767.517-1.023 0-.51-.258-.767-.774-.51-.257 0-.515.255-.515 0 0-.768 1.03-.512.773-1.79 0-.512-.772-.768-1.546-1.024l-.516-.51c-.515-.768-1.03-1.024-1.29-1.024-.257.256-.515.256-.773.512-.257 0-.515.255-.773.255-.516.51 0 1.278.258 1.79.258.255.515 1.022.258 1.278-.258.51-1.032 1.022-1.805 1.022-.516 0-2.063.256-2.837 0-.773-.255-2.578-1.278-3.094-1.79v-.767c.258-.51.516-1.022.773-1.79.516-1.533-.257-2.045-1.547-2.3-.258 0-.258-.256-.516 0v.255h-.257v-.255h-.258c.258 0 .258-.256.258-.512 0-.254 0-.254-.258-.51h.258s-.258-.256-.258-.512c.258 0 .515.256.515.256v-1.278s-.257.255-.515.255c0-.254.258-.51.258-.51h-1.29s.258.256.258.51c-.258 0-.516-.254-.516-.254v1.278s.258-.256.516-.256c0 .256-.258.512-.258.512h.258c-.258 0-.258.256-.258.51 0 .257.258.513.258.513h-.258l.258.255h-.258v-.255h-.515c-1.548.255-2.32 1.022-1.805 2.556.257.51.515 1.278.773 1.79v.766c-.516.512-2.32 1.79-3.094 1.79-.774.256-2.32 0-2.837 0-.515-.256-1.547-.51-1.805-1.023-.258-.51.258-1.022.258-1.278.258-.512.516-1.28.258-1.79-.258-.256-.516-.256-.774-.256-.257-.256-.515-.256-.773-.512-.257-.256-.773 0-1.288 1.023 0 .256-.258.512-.516.512-1.032.256-1.547.51-1.547 1.023-.26 1.023.772 1.023.772 1.79 0 .51-.515.255-.515 0-.258 0-.774.255-.774.51 0 .257 0 .768.516 1.024-.26-.257-.26-.768.257-.768.773.255 1.03.255 1.547-.256 0 .256-.258.51-.516.767-.258.767.258 1.278 1.03 1.278-.256-.254-.256-.766-.256-.766 0-.51.515-.767.515-1.278.258-1.023-.773-1.278-.515-2.3 0-.257 0-.513.257-.513.773 0 1.03-.255 1.547-.51.515 1.022-1.032 2.045 0 3.067.515.512 1.547.767 2.32 1.023 0 0-.258 0-.258.256-.258 0-.516 0-.516.254-1.032 0-1.805.512-1.547 1.79 0 .51.257.51.515.767.516-.766 1.547-.766 2.58-.255-.517 0-1.033 0-1.548.256-.516.257-1.032.513-1.547.257-.516 0-.516-.256-.774-.51-.258.254 0 1.02.774 1.277.257.256 1.03.256 1.547 0 .258 0 .773-.767 1.547-.767-1.03.256-1.546 1.023-.515 1.534 0-.255 0-.766.516-1.022.26-.255.774-.255 1.29-.255.258 0 .516.255.516.255.258 0 .258 0 .516-.255.515.51 1.29 1.534 1.29 2.3.257.768 0 1.28-.26 1.79-.257.256-.772.768-1.546 0 0 .768.516 1.28 1.547 1.023-.258.256-.516.256-.773.512-.516.255-1.29 0-1.548-.512-.515.767-.258 2.046.774 2.046-.516 1.022-2.063 1.022-2.837 0-.516-.767 0-1.023.257-1.28.774-.766.774-1.277.258-2.044-.516-1.023-2.578-2.3-3.352-3.58-.258.256-.258.256-.258.512-.773-.512-1.547-1.535-1.805-2.302-.258 0-.258.256-.258.256-1.03-1.278-3.094-4.602-3.61-5.88-1.29.51-1.03 2.3-.773 3.068.257.767.772 1.79 2.06 3.068-.256-.256-2.577-2.557-3.093-2.813-.773 1.28-.258 3.068 1.29 4.09-.516-.254-1.548-.51-2.32-.51 0 1.278 1.03 2.045 1.546 2.557-.516-.256-1.29-.256-2.063 0 0 .767 1.03 1.79 2.32 2.3-.773 0-1.546 0-2.062.257 0 1.023 1.03 1.79 2.32 1.79-.773 0-1.547.512-2.062 1.023.515.51 1.03 1.023 2.063 1.023-.26 0-.517.255-.775.51-.258 0-.258.257-.258.257l-.258.255v.512l-.516-.256s0 .767.257 1.28c.26.254.517.254.517.254l.516.512c0 .255.258.255.516.255 0 .256.257.512.514.512 0 .255 0 .255.258.51l2.58 5.882c0 .254 0 .51.257.51v.256h.257c0 .255-.258.51.257 1.022 0 .256 0 .512.258.768 0 .255 0 .51.258.767-.258.255-.516.51-.516 1.022 0 .256.258.256.516.512 0 .51.258.767.774.767 0 .51.258.51.515.51.257.257.257.257.515.257-.258.256 0 .768.258.768 0 .255.258.255.516.255.257.256.515.256.515.256s.257-.257 0-.512v-.512c.257-.255 0-.51-.258-.767v-.512c.258-.256.773-.51 1.03-.51.775-.513 1.806-1.024 2.837-1.28h1.032c.516 0 1.03.256 1.29 0l.257-.255c0-.256-.258-.512-.516-.767v-.256h.774c.26 0 .517-.512.517-1.023-.258.256-1.29.51-1.29-.51 0-.768.516-1.535 1.548-1.28.773.256 1.805 1.79.773 2.557-.516.256-1.29.767-1.03 1.534.257-.51.772-.51 1.288-.51-.774.51-1.547.766-2.32 1.022-.774.51-1.29 1.022-1.806 1.278-.516 0-.773-.51-.258-1.023-.515 0-1.03.256-1.29.767-.257.512 0 1.023.26 1.28-.517.254-1.032.766-.775 1.533.258.51.774.51.516 1.534.258 0 .516-.257.774-.768 0-.256 0-.51.257-.51 0 .51.258 1.277 1.032 1.533.516.255 1.29.255 1.805-.256.26.766 1.032 1.277 1.806 1.277.258 0 .774-.255 1.03-.255.26.51.775 1.022 1.29 1.278.516-.256 1.032-.767 1.29-1.278.258.255.516.255 1.032.255.773 0 1.547-.51 1.805-1.278.515.51 1.29.51 1.805.255.773-.256 1.03-1.023 1.03-1.534.26 0 .26.512.26.512 0 .256.257.51.772.767-.257-.768.516-.768.516-1.535.258-.767-.258-1.28-.773-1.534.257-.255.515-.766.257-1.278-.257-.51-.773-.767-1.29-.767.517.512.26 1.023-.257 1.023-.515 0-1.03-.767-1.805-1.278-.773-.512-1.547-.512-2.32-1.023.515 0 1.03.256 1.29.51 0-.766-.517-1.277-1.033-1.533-1.03-.767 0-2.3.774-2.557 1.03-.255 1.804.256 1.546 1.28 0 1.02-1.03.766-1.29.51 0 .51.517.767.517 1.023.257 0 .515.256 1.03 0v.256c0 .767-.515.767-.257 1.022.258.256 1.547.256 1.805.256.517 0 1.033.256 1.806.51.774.257 1.29.257 2.063.257.515.257.773.512 1.288.768.516 0 .516.256.774.256s.516-.256.774-.512h1.03c.26 0 .26-.255.517-.51.258-.257.515-.257.773-.257v-.51c.516-.257.774-.768 1.032-1.28 0 0 .258 0 .258-.255l.257-.256c0-.256 0-.256-.257-.51v-.257c-.258-1.023-1.032-1.79-2.063-2.045 0-.256-.258-.256-.258-.512.258 0 .516.256.516.512v-1.28c-.257 0-.515.257-.515.513 0-.256.258-.512.516-.512h-1.29s.26.512.517.512c-.258 0-.516-.256-.516-.512v1.28s.517-.257.517-.513c0 .256-.258.512-.516.512-1.03.255-1.804 1.022-2.062 2.045l-.257.256s-.257.255-.257.51c0 .257 0 .257.258.257 0 .256 0 .256.258.256 0 0 0 .255.258.255 0 .257-.515.513-.773.513-.774 0-1.805-.256-2.58-.512-.515-.254-.773-.254-1.03-.766 0 0 0-.256-.258-.51v-.257c0 .256.258.256.515.256v-.256c.258.256.516.51 1.032.51-.258-.254-.258-.766-.258-1.277.258.51 1.547.767 1.805-.256-.517.256-.775 0-.775-.255-.257-.513.258-1.28 0-2.047-.257-.51-.773-1.022-1.547-1.022v-.255c-.773.256-1.547 0-1.805-.512h.516c-.774-.51-.774-2.3-.26-3.068h.26c.257.256.773.256.773.512 0 0 .257 0 .257-.256v2.046s.774.512 1.032.767c.258-.51 1.03-.51 1.03-1.022 0-.766-.257-1.278-.257-1.79.258.512.516 2.046.774 2.558.257.767 1.03.51 1.288.767.258-.512.774-.512.516-1.28 0-.254-1.03-2.3-1.29-2.81.26.51 1.29 2.3 1.548 2.81.258.513 1.03.257 1.29.513 0-.512.773-.767.257-1.534-.517-1.023-1.806-2.557-2.064-2.813.258.257 2.32 2.814 2.32 2.814.517.51 1.032 0 1.548 0 0-.512.258-1.023-.258-1.534-.515-.512-1.547-1.28-1.805-1.534.775.51 1.548 1.278 2.064 1.534 1.032.255 1.29-.256 1.547-.256-.257-.767 0-1.278-1.804-2.046 1.805.512 2.32.256 3.095-.255-.257-.512-.773-1.023-1.29-1.28 1.033 0 1.806-.51 2.064-1.02-.258-.513-1.03-.768-2.063-1.024 1.29.255 2.322-.512 2.58-1.535z"/><path d="M73.348 26.594c-.436-4.12-3.482-9.488-6.768-11.93 0 0-4.912-3.653-11.08-7.277-6.17-3.625-11.734-6.132-11.734-6.132C41.906.417 39.453 0 37 0c-2.453 0-4.907.417-6.768 1.255 0 0-5.564 2.507-11.733 6.132-6.17 3.624-11.08 7.276-11.08 7.276-3.287 2.443-6.334 7.812-6.77 11.93 0 0-.65 6.158-.65 13.407 0 7.25.65 13.406.65 13.406.436 4.12 3.483 9.488 6.767 11.928 0 0 4.914 3.656 11.082 7.282 6.168 3.622 11.732 6.128 11.732 6.128C32.092 79.58 34.547 80 37 80c2.453 0 4.907-.42 6.766-1.256 0 0 5.564-2.506 11.732-6.128 6.17-3.626 11.082-7.282 11.082-7.282 3.286-2.44 6.332-7.81 6.768-11.928 0 0 .652-6.157.652-13.406 0-7.25-.652-13.406-.652-13.406zm-3.393 26.453c-.34 3.202-2.87 7.668-5.414 9.558-.048.037-4.85 3.597-10.772 7.078-5.923 3.48-11.35 5.934-11.4 5.957-1.35.607-3.307.956-5.368.956-2.062 0-4.017-.35-5.365-.954-.055-.025-5.464-2.47-11.403-5.958-5.924-3.482-10.727-7.042-10.776-7.08-2.545-1.89-5.073-6.355-5.41-9.555-.008-.06-.634-6.08-.634-13.05 0-6.97.626-12.988.633-13.05.337-3.2 2.866-7.665 5.414-9.558.046-.035 4.83-3.582 10.77-7.073 5.923-3.482 11.352-5.938 11.404-5.962 1.35-.607 3.304-.954 5.366-.954 2.06 0 4.017.347 5.363.953.052.025 5.48 2.48 11.406 5.964 5.92 3.48 10.724 7.037 10.77 7.072 2.546 1.89 5.076 6.36 5.415 9.56.006.06.633 6.058.633 13.048 0 6.97-.627 12.99-.633 13.047z"/></g></svg>