<?xml version="1.0" encoding="UTF-8"?>
<!DOCTYPE svg PUBLIC "-//W3C//DTD SVG 1.0//EN" "http://www.w3.org/TR/2001/REC-SVG-20010904/DTD/svg10.dtd">
<!-- Creator: CorelDRAW X7 -->
<svg xmlns="http://www.w3.org/2000/svg" xml:space="preserve" width="92mm" height="100mm" version="1.0" style="shape-rendering:geometricPrecision; text-rendering:geometricPrecision; image-rendering:optimizeQuality; fill-rule:evenodd; clip-rule:evenodd"
viewBox="0 0 9200 10000"
 xmlns:xlink="http://www.w3.org/1999/xlink">
 <defs>
  <style type="text/css">
   <![CDATA[
    .fil1 {fill:#6AC8C9;fill-rule:nonzero}
    .fil2 {fill:#75808B;fill-rule:nonzero}
    .fil0 {fill:#8F3C82;fill-rule:nonzero}
   ]]>
  </style>
 </defs>
<symbol id="Fm759-8006-0" viewBox="22307 -12921 551 398">
 <polygon class="fil0" points="22307,-12921 22859,-12921 22859,-12522 22307,-12522 "/>
</symbol>
<symbol id="Символ2" viewBox="21137 -14203 1919 1968">
 <polygon class="fil0" points="21137,-14203 23055,-14203 23055,-12235 21137,-12235 "/>
</symbol>
<symbol id="Fm756-7968-0" viewBox="31959 -5405 936 163">
 <polygon class="fil1" points="31959,-5405 32895,-5405 32895,-5242 31959,-5242 "/>
</symbol>
<symbol id="Fm758-8003-0" viewBox="21137 -14203 1919 1968">
 <polygon class="fil0" points="21137,-14203 23055,-14203 23055,-12235 21137,-12235 "/>
</symbol>
<symbol id="Fm757-8000-0" viewBox="20160 -15146 3566 3854">
 <polygon class="fil0" points="20160,-15146 23726,-15146 23726,-11292 20160,-11292 "/>
</symbol>
<symbol id="Символ4" viewBox="21452 -13465 945 164">
 <polygon class="fil0" points="21452,-13465 22398,-13465 22398,-13301 21452,-13301 "/>
</symbol>
<symbol id="Fm755-7965-0" viewBox="31959 -5731 936 163">
 <polygon class="fil1" points="31959,-5731 32895,-5731 32895,-5568 31959,-5568 "/>
</symbol>
<symbol id="Fm760-8009-0" viewBox="21452 -13834 945 164">
 <polygon class="fil0" points="21452,-13834 22398,-13834 22398,-13670 21452,-13670 "/>
</symbol>
<symbol id="Fm761-8012-0" viewBox="21452 -13465 945 164">
 <polygon class="fil0" points="21452,-13465 22398,-13465 22398,-13301 21452,-13301 "/>
</symbol>
<symbol id="Символ5" viewBox="22307 -12921 551 398">
 <polygon class="fil0" points="22307,-12921 22859,-12921 22859,-12522 22307,-12522 "/>
</symbol>
<symbol id="Символ3" viewBox="20160 -15146 3566 3854">
 <polygon class="fil0" points="20160,-15146 23726,-15146 23726,-11292 20160,-11292 "/>
</symbol>
<symbol id="Символ1" viewBox="21452 -13834 945 164">
 <polygon class="fil0" points="21452,-13834 22398,-13834 22398,-13670 21452,-13670 "/>
</symbol>
 <g id="Слой_x0020_1">
  <metadata id="CorelCorpID_0Corel-Layer"/>
  <path class="fil2" d="M9098 3324c-54,-515 -431,-1186 -838,-1491 0,0 -608,-457 -1371,-910 -763,-453 -1452,-766 -1452,-766 -230,-105 -533,-157 -837,-157 -304,0 -607,52 -837,157 0,0 -689,313 -1452,766 -763,453 -1371,910 -1371,910 -407,305 -784,976 -838,1491 0,0 -80,770 -80,1676 0,906 80,1676 80,1676 54,515 431,1186 838,1491 0,0 608,457 1371,910 763,453 1452,766 1452,766 230,105 533,157 837,157 304,0 607,-52 837,-157 0,0 689,-313 1452,-766 763,-453 1371,-910 1371,-910 407,-305 784,-976 838,-1491 0,0 80,-770 80,-1676 0,-906 -80,-1676 -80,-1676l0 0zm-4187 -500l-309 178 -313 -181c14,-125 30,-257 44,-380 50,-430 91,-569 153,-633 37,-38 75,-57 114,-57 38,0 76,19 114,57 62,64 103,203 153,633 14,124 29,257 44,383zm-650 245l113 65 -129 74 16 -139zm-79 439l420 -242 408 235c25,26 68,46 145,69 340,107 682,227 1022,329 114,34 228,68 341,102 22,23 17,78 -8,90 -369,6 -737,-2 -1104,-3 -26,0 -51,0 -76,0 -181,3 -238,-21 -225,100 2,21 3,42 5,63l4 52 -512 296 -516 -299 4 -49c1,-21 2,-42 5,-63 13,-121 -44,-97 -225,-100 -25,0 -51,0 -76,0 -367,1 -736,9 -1105,3 -25,-12 -30,-67 -8,-90 114,-34 228,-68 341,-102 340,-102 682,-222 1023,-329 70,-21 112,-39 137,-62zm772 -303l-124 -71 109 -63 15 134zm-889 1347l309 178 -338 196c10,-125 19,-249 29,-374zm-75 663l612 -353 603 348c19,25 51,32 97,45 400,115 1339,251 1741,358 19,14 26,56 0,82 -383,12 -1300,-13 -1683,0 -43,1 -64,5 -73,17l-685 396 -701 -405 0 0c-12,-5 -32,-7 -61,-8 -383,-13 -1290,12 -1673,0 -26,-26 -19,-68 0,-82 402,-107 1331,-243 1730,-358 43,-12 73,-19 93,-40zm1174 -292l-334 -193 304 -175c10,122 20,245 30,368zm-1273 1037l483 279 -555 321 72 -600zm-106 883l817 -472 813 469 13 110 -826 476 -830 -479 13 -104zm1595 -286l-550 -318 479 -276 71 594zm-1638 636l632 365 -726 419 94 -784zm-128 1068l988 -571 984 568 13 110 0 0c2,62 53,111 116,111 63,0 123,-52 115,-115l-294 -2442c328,-3 1187,14 1514,3 61,-2 116,-28 156,-68l1 0c58,-58 89,-141 83,-224 -8,-109 -80,-214 -188,-243l0 0c-392,-104 -1308,-232 -1697,-346 -19,-242 -38,-484 -58,-725 20,0 39,0 59,0 369,0 738,8 1108,2 33,-1 65,-8 93,-21l0 0c26,-12 49,-28 69,-47l0 0c49,-47 78,-111 85,-174 15,-125 -51,-262 -177,-299l0 0 -341 -102c-342,-102 -679,-222 -1020,-328 -22,-7 -22,-9 -23,-16 -1,-17 -3,-35 -8,-80 -32,-279 -63,-559 -96,-839 -26,-226 -51,-377 -77,-484 -36,-141 -81,-223 -140,-283 -79,-82 -169,-124 -268,-127 -4,0 -8,0 -11,0 -4,0 -7,0 -11,0 -100,3 -189,45 -269,127 -59,60 -104,142 -139,283 -27,107 -51,258 -78,484 -32,280 -64,560 -95,839 -5,45 -7,63 -8,80 -1,7 -1,9 -24,16 -341,106 -678,226 -1020,328l-341 102 0 0c-126,37 -191,174 -177,299 8,63 36,127 85,174l0 0c21,19 44,35 70,47l0 0c28,13 59,20 93,21 369,6 738,-2 1108,-2 19,0 39,0 58,0 -19,241 -38,483 -57,725 -389,114 -1295,242 -1687,346l0 0c-108,29 -180,134 -188,243 -6,83 25,166 83,224l1 0c40,40 95,66 156,68 327,11 1176,-6 1503,-3l-293 2442c-8,63 51,115 115,115 63,0 113,-49 115,-111l1 0 13 -107zm1938 -286l-722 -417 628 -362 94 779zm3126 -1344c-42,400 -355,958 -670,1195 -6,4 -600,449 -1333,884 -733,435 -1405,742 -1411,745 -167,76 -409,119 -664,119 -255,0 -497,-43 -664,-119 -6,-3 -676,-309 -1411,-745 -733,-435 -1327,-880 -1333,-884 -315,-237 -628,-795 -670,-1195 -1,-7 -78,-760 -78,-1631 0,-871 77,-1624 78,-1631 42,-400 355,-958 670,-1195 6,-4 598,-448 1333,-884 733,-435 1405,-742 1411,-745 167,-76 409,-119 664,-119 255,0 497,43 664,119 6,3 676,309 1411,745 733,435 1327,880 1333,884 315,237 628,795 670,1195 1,7 78,760 78,1631 0,871 -77,1624 -78,1631l0 0z"/>
 </g>
</svg>
