<svg xmlns="http://www.w3.org/2000/svg" viewBox="0 0 75.2 80"><g fill="#60BC46"><path d="M74.4 26.6c-.4-4.1-3.5-9.5-6.9-11.9 0 0-5-3.7-11.2-7.3S44.5 1.3 44.5 1.3C42.6.4 40.1 0 37.6 0s-5 .4-6.9 1.3c0 0-5.6 2.5-11.9 6.1-6.2 3.6-11.2 7.3-11.2 7.3-3.3 2.4-6.4 7.8-6.9 11.9 0 0-.7 6.2-.7 13.4s.7 13.4.7 13.4c.4 4.1 3.5 9.5 6.9 11.9 0 0 5 3.7 11.2 7.3 6.3 3.6 11.9 6.1 11.9 6.1 1.9.8 4.4 1.3 6.9 1.3s5-.4 6.9-1.3c0 0 5.6-2.5 11.9-6.1s11.2-7.3 11.2-7.3c3.3-2.4 6.4-7.8 6.9-11.9 0 0 .7-6.2.7-13.4-.1-7.2-.8-13.4-.8-13.4zM71 53c-.3 3.2-2.9 7.7-5.5 9.6 0 0-4.9 3.6-10.9 7.1s-11.5 5.9-11.6 6c-1.4.6-3.3 1-5.4 1-2.1 0-4.1-.3-5.4-1-.1 0-5.5-2.5-11.6-6-6-3.5-10.9-7-10.9-7.1-2.6-1.9-5.1-6.4-5.5-9.6 0 0-.6-6-.6-13s.6-13 .6-13c.3-3.2 2.9-7.7 5.5-9.6 0 0 4.9-3.6 10.9-7.1s11.5-5.9 11.6-6c1.4-.6 3.3-1 5.4-1 2.1 0 4.1.3 5.4 1 .1 0 5.6 2.5 11.6 6s10.9 7 10.9 7.1c2.6 1.9 5.1 6.4 5.5 9.6 0 .1.6 6.1.6 13 0 7-.6 13-.6 13z"/><path d="M51.9 18.6c.2 0 .3.2.3.3v42.2c0 .2-.2.3-.3.3H23.3c-.2 0-.3-.2-.3-.3V18.9c0-.2.2-.3.3-.3h28.6zm0-3.5H23.3c-2.1 0-3.9 1.7-3.9 3.8v42.2c0 2.1 1.7 3.8 3.9 3.8h28.6c2.1 0 3.9-1.7 3.9-3.8V18.9c0-2.1-1.8-3.8-3.9-3.8z"/><path d="M28.2 36.6c-1.5 0-2.7 1.2-2.7 2.6 0 1.4 1.2 2.6 2.7 2.6s2.7-1.2 2.7-2.6c0-1.5-1.2-2.6-2.7-2.6zm18.6 0c-1.5 0-2.7 1.2-2.7 2.6 0 1.4 1.2 2.6 2.7 2.6s2.7-1.2 2.7-2.6c-.1-1.5-1.3-2.6-2.7-2.6zm-9.3 0c-1.5 0-2.7 1.2-2.7 2.6 0 1.4 1.2 2.6 2.7 2.6s2.7-1.2 2.7-2.6c0-1.5-1.2-2.6-2.7-2.6zM47 23.7v6H28.3v-6H47zm.8-2.6H27.5c-1 0-1.8.8-1.8 1.7v7.7c0 1 .8 1.7 1.8 1.7h20.4c1 0 1.8-.8 1.8-1.7v-7.7c-.1-.9-.9-1.7-1.9-1.7zm-19.6 24c-1.5 0-2.7 1.2-2.7 2.6 0 1.4 1.2 2.6 2.7 2.6s2.7-1.2 2.7-2.6c0-1.4-1.2-2.6-2.7-2.6zm18.6 0c-1.5 0-2.7 1.2-2.7 2.6 0 1.4 1.2 2.6 2.7 2.6s2.7-1.2 2.7-2.6c-.1-1.4-1.3-2.6-2.7-2.6zm-9.3 0c-1.5 0-2.7 1.2-2.7 2.6 0 1.4 1.2 2.6 2.7 2.6s2.7-1.2 2.7-2.6c0-1.4-1.2-2.6-2.7-2.6zm-9.3 8.6c-1.5 0-2.7 1.2-2.7 2.6 0 1.4 1.2 2.6 2.7 2.6s2.7-1.2 2.7-2.6c0-1.4-1.2-2.6-2.7-2.6zm18.6 0c-1.5 0-2.7 1.2-2.7 2.6 0 1.4 1.2 2.6 2.7 2.6s2.7-1.2 2.7-2.6c-.1-1.4-1.3-2.6-2.7-2.6zm-9.3 0c-1.5 0-2.7 1.2-2.7 2.6 0 1.4 1.2 2.6 2.7 2.6s2.7-1.2 2.7-2.6c0-1.4-1.2-2.6-2.7-2.6z"/></g></svg>