<?xml version="1.0" encoding="UTF-8"?>
<svg viewBox="0 0 88 96" version="1.1" xmlns="http://www.w3.org/2000/svg" xmlns:xlink="http://www.w3.org/1999/xlink">
    <!-- Generator: Sketch 53.2 (72643) - https://sketchapp.com -->
    <title>68</title>
    <desc>Created with Sketch.</desc>
    <g id="Page-1" stroke="none" stroke-width="1" fill="none" fill-rule="evenodd">
        <g id="68" transform="translate(1.000000, 0.000000)" fill="#2E7DAF" fill-rule="nonzero">
            <path d="M85.984375,31.5844213 C85.440625,26.7725544 81.90625,20.4483866 78.1,17.4237845 C78.1,17.4237845 72.2546875,13.0243634 65.05,8.89990609 C57.8453125,4.50048496 51.184375,1.61336484 51.184375,1.61336484 C49.009375,0.650991471 46.1546875,0.10106383 43.3,0.10106383 C40.4453125,0.10106383 37.4546875,0.650991471 35.415625,1.61336484 C35.415625,1.61336484 28.890625,4.50048496 21.55,8.89990609 C14.3453125,13.2993272 8.5,17.4237845 8.5,17.4237845 C4.5578125,20.3109046 1.159375,26.6350725 0.615625,31.5844213 C0.615625,31.5844213 -0.2,38.8709625 -0.2,47.5323229 C-0.2,56.0562013 0.615625,63.4802245 0.615625,63.4802245 C1.159375,68.2920913 4.69375,74.6162592 8.5,77.6408612 C8.5,77.6408612 14.3453125,82.0402824 21.55,86.3022216 C28.7546875,90.7016427 35.415625,93.5887628 35.415625,93.5887628 C37.590625,94.5511362 40.4453125,95.1010638 43.3,95.1010638 C46.1546875,95.1010638 49.1453125,94.5511362 51.184375,93.5887628 C51.184375,93.5887628 57.709375,90.7016427 65.05,86.3022216 C72.2546875,81.9028004 78.1,77.6408612 78.1,77.6408612 C82.0421875,74.7537411 85.440625,68.4295732 85.984375,63.4802245 C85.984375,63.4802245 86.8,56.1936832 86.8,47.5323229 C86.8,39.0084444 85.984375,31.5844213 85.984375,31.5844213 Z M82.069209,63.1462555 C81.6601365,66.8771014 78.6602713,72.2661012 75.7967637,74.4769729 C75.6604062,74.4769729 70.0697484,78.7605368 63.1155155,82.9059213 C56.1612827,87.0513057 49.7524798,89.9530748 49.6161223,89.9530748 C47.9798323,90.6439722 45.6617546,91.0585106 43.343677,91.0585106 C40.8892419,91.0585106 38.5711643,90.6439722 37.0712317,89.9530748 C36.9348742,89.9530748 30.6624289,87.0513057 23.5718385,82.9059213 C16.6176057,78.7605368 10.8905904,74.4769729 10.8905904,74.4769729 C7.89072521,72.2661012 4.89086006,66.8771014 4.61814504,63.1462555 C4.48178753,63.1462555 3.8,55.9609224 3.8,47.6701536 C3.8,39.3793847 4.48178753,32.1940517 4.48178753,32.1940517 C4.89086006,28.4632057 7.89072521,23.0742059 10.7542329,20.8633342 C10.8905904,20.8633342 16.4812481,16.5797703 23.435481,12.4343859 C30.3897139,8.28900145 36.7985167,5.38723235 36.9348742,5.38723235 C38.5711643,4.55815546 40.8892419,4.14361702 43.343677,4.14361702 C45.7981121,4.14361702 48.1161898,4.55815546 49.6161223,5.24905287 C49.7524798,5.24905287 56.0249252,8.15082197 63.1155155,12.2962064 C70.0697484,16.4415908 75.7967637,20.7251548 75.7967637,20.7251548 C78.7966288,22.9360265 81.796494,28.3250262 82.069209,32.0558722 C82.069209,32.1940517 82.7509965,39.2412052 82.7509965,47.5319741 C83.0237115,55.9609224 82.069209,63.1462555 82.069209,63.1462555 L82.069209,63.1462555 Z" id="Shape"></path>
            <path d="M57.0699446,61.8181818 L45.0293189,61.8181818 L45.0293189,30.9266862 C50.576124,31.1964809 56.393505,32.8152493 63.2931893,35.7829912 C63.5637652,35.9178886 63.834341,36.0527859 64.1049169,36.0527859 C64.9166445,36.0527859 65.5930841,35.5131965 65.86366,34.8387097 C66.2695238,33.8944282 65.728372,32.6803519 64.7813565,32.2756598 C57.3405205,29.0381232 50.9819878,27.4193548 45.0293189,27.1495601 L45.0293189,22.0234604 C45.0293189,20.9442815 44.2175914,20 43,20 C41.9176966,20 40.9706811,20.8093842 40.9706811,22.0234604 L40.9706811,27.1495601 C34.8827243,27.4193548 28.6594795,29.1730205 21.2186435,32.2756598 C20.271628,32.6803519 19.7304762,33.8944282 20.13634,34.8387097 C20.5422038,35.9178886 21.7597952,36.3225806 22.8420986,35.9178886 C29.8770709,33.085044 35.5591639,31.3313783 41.105969,31.0615836 L41.105969,61.9530792 L28.6594795,61.9530792 C27.5771761,61.9530792 26.6301606,62.7624633 26.6301606,63.9765396 C26.6301606,65.0557185 27.4418882,66 28.6594795,66 L56.9346567,66 C58.0169601,66 58.9639756,65.1906158 58.9639756,63.9765396 C59.0992635,62.7624633 58.152248,61.8181818 57.0699446,61.8181818 Z" id="Path"></path>
            <path d="M35.787621,52.8058824 C36.8691263,51.5705882 37.1395026,49.7862745 36.3283736,48.4137255 L30.9208473,37.2960784 C30.2449065,35.7862745 28.8930249,35.1 27.270767,35.1 C25.7836972,35.1 24.4318157,35.9235294 23.6206867,37.2960784 L18.2131604,48.4137255 C17.5372196,49.9235294 17.6724077,51.7078431 18.753913,52.9431373 C19.2946656,53.4921569 21.9984288,56.1 27.1355788,56.1 C32.6782933,56.1 35.2468684,53.354902 35.787621,52.8058824 L35.787621,52.8058824 Z M27.3,39.1 L32.8,50.1842105 C32.8,50.1842105 31.15,52.1 27.1625,52.1 C23.45,52.1 21.8,50.1842105 21.8,50.1842105 L27.3,39.1 L27.3,39.1 Z M63.1102567,37.2960784 C62.4245581,35.7862745 61.0531611,35.1 59.4074847,35.1 C57.7618083,35.1 56.5275509,35.9235294 55.7047127,37.2960784 L50.2191246,48.4137255 C49.5334261,49.9235294 49.6705658,51.7078431 50.7676834,52.9431373 C51.3162423,53.4921569 54.0590363,56.1 59.270345,56.1 C64.6187934,56.1 67.3615874,53.4921569 67.7730065,52.8058824 C68.8701241,51.5705882 69.1444036,49.7862745 68.3215653,48.4137255 L63.1102567,37.2960784 L63.1102567,37.2960784 Z M60.1625,52.1 C56.45,52.1 54.8,50.1842105 54.8,50.1842105 L60.3,39.1 L65.8,50.1842105 C65.6625,50.1842105 63.875,52.1 60.1625,52.1 Z" id="Shape"></path>
        </g>
    </g>
</svg>