<svg xmlns="http://www.w3.org/2000/svg" viewBox="0 0 87 94"><g fill="#C22353"><path d="M86.2 31.2c-.5-4.8-4.1-11.1-7.9-14 0 0-5.8-4.3-13-8.5C58 4.4 51.4 1.5 51.4 1.5 49.2.5 46.3 0 43.5 0c-2.9 0-5.8.5-7.9 1.5 0 0-6.5 2.9-13.8 7.2-7.2 4.3-13 8.5-13 8.5-3.9 2.9-7.4 9.2-7.9 14 0 0-.8 7.2-.8 15.8 0 8.5.8 15.8.8 15.8.5 4.8 4.1 11.1 7.9 14 0 0 5.8 4.3 13 8.6s13.8 7.2 13.8 7.2c2.2 1 5.1 1.5 7.9 1.5 2.9 0 5.8-.5 7.9-1.5 0 0 6.5-2.9 13.8-7.2 7.2-4.3 13-8.6 13-8.6 3.9-2.9 7.4-9.2 7.9-14 0 0 .8-7.2.8-15.8.1-8.5-.7-15.8-.7-15.8zm-4 31c-.4 3.8-3.4 9-6.3 11.2-.1 0-5.7 4.2-12.6 8.3-6.9 4.1-13.3 7-13.4 7-1.6.7-3.9 1.1-6.3 1.1s-4.7-.4-6.3-1.1c-.1 0-6.4-2.9-13.4-7-6.9-4.1-12.6-8.3-12.6-8.3-3-2.2-5.9-7.5-6.3-11.2-.3 0-1-7.1-1-15.2s.7-15.3.7-15.3c.4-3.8 3.4-9 6.3-11.2.1 0 5.7-4.2 12.6-8.3s13.3-7 13.4-7c1.7-.8 4-1.2 6.4-1.2 2.4 0 4.7.4 6.3 1.1.1 0 6.4 2.9 13.4 7 6.9 4.1 12.6 8.3 12.6 8.3 3 2.2 5.9 7.5 6.3 11.2 0 .1.7 7.1.7 15.3.3 8.2-.5 15.3-.5 15.3z"/><path d="M59.8 21.6v-4.1c0-1.4-.6-2.7-1.6-3.5-1-.8-2.4-1-3.8-.6l-29.2 8.2c-.6.2-1 .6-1.3 1.1-.7.7-1.2 1.7-1.2 2.9v45c0 2.2 1.8 4 4 4h32.1c2.2 0 4-1.8 4-4v-45c0-2-1.3-3.6-3-4zm-4.4-4.4c.2-.1.3 0 .3 0s.1.1.1.3v4H40.3l15.1-4.3zm3.4 53.2h-32v-45h32.1v45z"/><path d="M34.8 30.5h-4v16c0 3.4 1.8 7 7 7h1.3l.8.8 2.8 2.8 2.8-2.8.8-.8h1.3c4.1 0 7-2.9 7-7v-16H34.8zm16 16c0 2-1.3 3-3 3h-3l-2 2-2-2h-3c-1 0-3 0-3-3v-12h16v12zM52.8 60.4h-20c-1.1 0-2 .9-2 2s.9 2 2 2h20c1.1 0 2-.9 2-2s-.9-2-2-2z"/></g></svg>