<svg xmlns="http://www.w3.org/2000/svg" viewBox="0 0 87 94"><g fill="#C22353"><path d="M86.2 31.2c-.5-4.8-4.1-11.1-7.9-14 0 0-5.8-4.3-13-8.5C58 4.4 51.4 1.5 51.4 1.5 49.2.5 46.3 0 43.5 0c-2.9 0-5.8.5-7.9 1.5 0 0-6.5 2.9-13.8 7.2-7.2 4.3-13 8.5-13 8.5-3.9 2.9-7.4 9.2-7.9 14 0 0-.8 7.2-.8 15.8 0 8.5.8 15.8.8 15.8.5 4.8 4.1 11.1 7.9 14 0 0 5.8 4.3 13 8.6s13.8 7.2 13.8 7.2c2.2 1 5.1 1.5 7.9 1.5 2.9 0 5.8-.5 7.9-1.5 0 0 6.5-2.9 13.8-7.2 7.2-4.3 13-8.6 13-8.6 3.9-2.9 7.4-9.2 7.9-14 0 0 .8-7.2.8-15.8.1-8.5-.7-15.8-.7-15.8zm-4 31c-.4 3.8-3.4 9-6.3 11.2-.1 0-5.7 4.2-12.6 8.3-6.9 4.1-13.3 7-13.4 7-1.6.7-3.9 1.1-6.3 1.1s-4.7-.4-6.3-1.1c-.1 0-6.4-2.9-13.4-7-6.9-4.1-12.6-8.3-12.6-8.3-3-2.2-5.9-7.5-6.3-11.2-.3 0-1-7.1-1-15.2s.7-15.3.7-15.3c.4-3.8 3.4-9 6.3-11.2.1 0 5.7-4.2 12.6-8.3s13.3-7 13.4-7c1.7-.8 4-1.2 6.4-1.2 2.4 0 4.7.4 6.3 1.1.1 0 6.4 2.9 13.4 7 6.9 4.1 12.6 8.3 12.6 8.3 3 2.2 5.9 7.5 6.3 11.2 0 .1.7 7.1.7 15.3.3 8.2-.5 15.3-.5 15.3z"/><path d="M71.1 38.7L44.9 17.4c-.7-.6-1.8-.6-2.5 0L16.3 38.7c-.9.7-1 2-.3 2.8.7.9 2 1 2.8.3l1.9-1.6v24.6c0 3.9 3.1 7 7 7h31.6c3.9 0 7-3.1 7-7V40.1l2.2 1.8c.4.3.8.4 1.3.4.6 0 1.2-.3 1.6-.7.7-.9.6-2.2-.3-2.9zm-8.8 26c0 1.7-1.3 3-3 3H27.8c-1.7 0-3-1.3-3-3V37.3l18.7-15.7 18.8 15.7v27.4z"/><path d="M34.9 41.8c0 2.6 1 4.9 2.7 6.5-3.1 1.3-5.7 3.6-7.1 6.6-.6 1.3-.5 2.8.2 4 .4.6 1.2 1.9 5.3 3.2 1.4.5 4.3 1.2 7.4 1.2h.1c4.1 0 11.1-1.7 12.9-4.7.8-1.3.8-2.8.2-4.1-1.5-2.9-4-5.1-7.1-6.4 1.6-1.6 2.7-3.9 2.7-6.5 0-5-3.9-9-8.7-9-4.7.2-8.6 4.3-8.6 9.2zm18.2 14.6c.3.6-4.6 2.9-9.5 2.9h-.1c-4.8 0-9.6-2.2-9.4-2.8 1.6-3.3 5.3-5.6 9.6-5.6 4.2.1 7.8 2.3 9.4 5.5zm-9.5-19.6c2.6 0 4.7 2.2 4.7 5s-2.1 5-4.7 5-4.7-2.2-4.7-5c0-2.7 2.1-5 4.7-5z"/></g></svg>