<?xml version="1.0" encoding="UTF-8"?>
<svg width="26px" height="33px" viewBox="0 0 26 33" version="1.1" xmlns="http://www.w3.org/2000/svg" xmlns:xlink="http://www.w3.org/1999/xlink">
    <!-- Generator: Sketch 53.2 (72643) - https://sketchapp.com -->
    <title>service</title>
    <desc>Created with Sketch.</desc>
    <g id="Page-1" stroke="none" stroke-width="1" fill="none" fill-rule="evenodd">
        <g id="icons-svg-desc-5de62bb76c" transform="translate(-1.000000, -2623.000000)" fill="#FFFFFF" fill-rule="nonzero">
            <path d="M26.4,2632.8 C26.8,2633.2 27,2633.7 27,2634.2 L27,2655.4 L1,2655.4 L1,2623.4 L16.2,2623.4 C16.7,2623.4 17.2,2623.6 17.6,2624 L26.4,2632.8 Z M23.2,2632.4 L17,2626.2 L17,2632.4 L23.2,2632.4 Z M8,2640.4 L20,2640.4 L20,2642.4 L8,2642.4 L8,2640.4 Z M8,2645.4 L20,2645.4 L20,2647.4 L8,2647.4 L8,2645.4 Z M3,2653.4 L25,2653.4 L25,2634.4 L17,2634.4 C15.9,2634.4 15,2633.5 15,2632.4 L15,2625.4 L3,2625.4 L3,2653.4 Z" id="service"></path>
        </g>
    </g>
</svg>