<?xml version="1.0" encoding="UTF-8"?>
<svg viewBox="0 0 22 35" version="1.1" xmlns="http://www.w3.org/2000/svg" xmlns:xlink="http://www.w3.org/1999/xlink">
    <!-- Generator: Sketch 53.2 (72643) - https://sketchapp.com -->
    <title>icon-gender-man</title>
    <desc>Created with Sketch.</desc>
    <g id="Page-1" stroke="none" stroke-width="1" fill-rule="evenodd">
        <g id="icon-gender-man" fill-rule="nonzero">
            <path d="M11,9 C13.2096,9 15,6.98469847 15,4.49954995 C15,2.01350135 13.2096,0 11,0 C8.7912,0 7,2.01350135 7,4.49954995 C7,6.98469847 8.7912,9 11,9" id="Fill-1"></path>
            <path d="M21.5553273,18.3346558 L14.5181951,10.5770372 C14.1047636,10.119236 13.4986905,9.9321496 12.9260439,10.0218131 C12.8688672,10.0071566 9.13127039,10.0071566 9.07321404,10.0218131 C8.50056741,9.9321496 7.89625369,10.119236 7.48194253,10.5770372 L0.443930704,18.3346558 C-0.201726174,19.046791 -0.134873418,20.1365476 0.590830839,20.7693652 C1.3165351,21.4021827 2.42840198,21.3383836 3.0749385,20.6271105 L6.60230101,16.7362312 L6.60230101,33.2757016 C6.60230101,34.2283765 7.38958017,35 8.36070441,35 C9.33358794,35 10.1199875,34.2283765 10.1199875,33.2757016 L10.1199875,23.7911981 L11.8792705,23.7911981 L11.8792705,33.2757016 C11.8792705,34.2283765 12.6665497,35 13.6385535,35 C14.6105574,35 15.3978366,34.2283765 15.3978366,33.2757016 L15.3978366,16.7362312 L18.9251991,20.6271105 C19.5717356,21.3383836 20.6827229,21.4021827 21.4093068,20.7693652 C22.135011,20.1365476 22.2018638,19.046791 21.5553273,18.3346558" id="Fill-2"></path>
        </g>
    </g>
</svg>