<?xml version="1.0" encoding="UTF-8"?>
<svg viewBox="0 0 14 9" version="1.1" xmlns="http://www.w3.org/2000/svg" xmlns:xlink="http://www.w3.org/1999/xlink">
    <!-- Generator: Sketch 53.2 (72643) - https://sketchapp.com -->
    <title>Shape</title>
    <desc>Created with Sketch.</desc>
    <g id="Page-1" stroke="none" stroke-width="1" fill="none" fill-rule="evenodd">
        <g id="icons-svg-desc" transform="translate(-1.000000, -182.000000)" fill="#0173C1" fill-rule="nonzero">
            <path d="M8.9,185.5 C8.4,183.8 6.8,182.5 5,182.5 C2.8,182.5 1,184.3 1,186.5 C1,188.7 2.8,190.5 5,190.5 C6.9,190.5 8.4,189.2 8.8,187.5 L12,187.5 L12,189.5 L14,189.5 L14,187.5 L15,187.5 L15,185.5 L8.9,185.5 Z M4.9,188.5 C3.8,188.5 2.9,187.6 2.9,186.5 C2.9,185.4 3.8,184.5 4.9,184.5 C6,184.5 6.9,185.4 6.9,186.5 C6.9,187.6 6,188.5 4.9,188.5 Z" id="Shape"></path>
        </g>
    </g>
</svg>