<?xml version="1.0" encoding="UTF-8"?>
<svg width="26px" height="33px" viewBox="0 0 26 33" version="1.1" xmlns="http://www.w3.org/2000/svg" xmlns:xlink="http://www.w3.org/1999/xlink">
    <!-- Generator: Sketch 53.2 (72643) - https://sketchapp.com -->
    <title>user</title>
    <desc>Created with Sketch.</desc>
    <g id="Page-1" stroke="none" stroke-width="1" fill="none" fill-rule="evenodd">
        <g id="icons-svg-desc-5de62bb76c" transform="translate(-1.000000, -2570.000000)" fill="#FFFFFF" fill-rule="nonzero">
            <g id="Group-2" transform="translate(1.069260, 2570.376952)">
                <path d="M25.9307396,29.8230478 C26.0307396,30.8230478 25.3307396,31.8230478 24.2307396,32.0230478 L1.73073955,32.0230478 C0.630739554,31.8230478 -0.169260446,30.9230478 0.0307395535,29.8230478 C1.03073955,23.6230478 4.23073955,19.9230478 9.43073955,18.8230478 C6.63073955,17.8230478 4.43073955,15.7230478 3.43073955,13.1230478 C1.53073955,8.12304782 4.13073955,2.52304782 9.43073955,0.623047818 C14.7307396,-1.27695218 20.6307396,1.32304782 22.5307396,6.32304782 C24.4307396,11.3230478 21.8307396,16.9230478 16.5307396,18.8230478 C21.7307396,19.9230478 24.9307396,23.6230478 25.9307396,29.8230478 Z M4.83073955,9.72304782 C4.83073955,14.0230478 8.43073955,17.5230478 13.0307396,17.5230478 C17.6307396,17.5230478 21.2307396,14.0230478 21.2307396,9.72304782 C21.2307396,5.42304782 17.6307396,1.92304782 13.0307396,1.92304782 C8.43073955,1.92304782 4.83073955,5.42304782 4.83073955,9.72304782 Z M1.93073955,30.0230478 L23.9307396,30.0230478 C22.8307396,23.4230478 19.3307396,20.3230478 12.9307396,20.3230478 C6.53073955,20.3230478 3.03073955,23.4230478 1.93073955,30.0230478 Z" id="user"></path>
            </g>
        </g>
    </g>
</svg>