<?xml version="1.0" encoding="UTF-8"?>
<svg viewBox="0 0 22 35" version="1.1" xmlns="http://www.w3.org/2000/svg" xmlns:xlink="http://www.w3.org/1999/xlink">
    <!-- Generator: Sketch 53.2 (72643) - https://sketchapp.com -->
    <title>icon-gender-woman</title>
    <desc>Created with Sketch.</desc>
    <g id="Page-1" stroke="none" stroke-width="1" fill-rule="evenodd">
        <g id="icon-gender-woman" fill-rule="nonzero">
            <path d="M11.0004,9 C13.209779,9 15,6.98469847 15,4.49954995 C15,2.01350135 13.209779,0 11.0004,0 C8.7910209,0 7,2.01350135 7,4.49954995 C7,6.98469847 8.7910209,9 11.0004,9" id="Fill-1"></path>
            <path d="M21.5559875,18.3376435 L14.518927,10.5801524 C14.0685551,10.0836178 12.7596618,10 12.7596618,10 L9.21826109,10.0577566 C8.60427756,9.90948588 7.93047901,10.0836178 7.48186639,10.5801524 L0.443926187,18.3376435 C-0.201724121,19.0488259 -0.134872045,20.1393055 0.590824826,20.7711803 C1.3165217,21.4047791 2.42837727,21.3401262 3.07490721,20.6289438 L6.53890028,16.809248 L3.0828239,25.5184304 L6.60223382,25.5184304 L6.60223382,33.2759215 C6.60223382,34.2284749 7.38950497,35 8.36149897,35 C9.33349296,35 10.1207641,34.2284749 10.1207641,33.2759215 L10.1207641,25.5184304 L11.8800293,25.5184304 L11.8800293,33.2759215 C11.8800293,34.2284749 12.6673004,35 13.6392944,35 C14.6104088,35 15.3985595,34.2284749 15.3985595,33.2759215 L15.3985595,25.5184304 L18.9170898,25.5184304 L15.4618931,16.809248 L18.9258862,20.6289438 C19.5715365,21.3401262 20.683392,21.4047791 21.4099685,20.7711803 C22.1347858,20.1393055 22.2016379,19.0488259 21.5559875,18.3376435" id="Fill-2"></path>
        </g>
    </g>
</svg>