<?xml version="1.0" encoding="UTF-8"?>
<svg width="80px" height="80px" viewBox="0 0 80 80" version="1.1" xmlns="http://www.w3.org/2000/svg" xmlns:xlink="http://www.w3.org/1999/xlink">
    <!-- Generator: Sketch 53.2 (72643) - https://sketchapp.com -->
    <title>Artboard</title>
    <desc>Created with Sketch.</desc>
    <g id="Artboard" stroke="none" stroke-width="1" fill="none" fill-rule="evenodd">
        <path d="M40.0386314,5.00940019e-05 C23.9157594,-0.0253934692 9.35587158,9.64352787 3.11612178,24.5195275 C-3.12362803,39.3955272 0.178371836,56.5661976 11.4896837,68.062737 C22.8009955,79.5592763 39.9071026,83.1309041 54.8691664,77.1200501 C61.2201613,81.5320236 69.8161365,80.7650295 75.2868022,75.2982433 C80.7574679,69.8314572 81.5355543,61.2310372 77.1349562,54.8700501 C82.0661726,42.5479756 80.5676685,28.5807134 73.1349543,17.5868203 C65.7022401,6.59292723 53.3035015,0.00446823792 40.0386314,5.00940019e-05 Z M8.26890716,58.9300501 C-0.516813214,44.184373 1.98795457,25.3283692 14.318129,13.3912377 C26.6483035,1.45410612 45.5647155,-0.428237563 60.0028324,8.84522162 C74.4409494,18.1186808 80.6078401,36.1117809 74.8963849,52.3000501 C71.9476787,49.5395535 68.0613292,48.0026079 64.0233241,48.0000501 C63.5736112,48.0000501 63.1238982,48.0000501 62.6841788,48.0700501 C62.2444594,48.1400501 61.6848166,48.0000501 61.1851355,48.0000501 L25.2080964,48.0000501 C17.9093996,48.0081724 11.2878397,52.2807292 8.26890716,58.9300501 Z M64.0233241,77.0000501 C56.8482016,77.0000501 51.0316156,71.1797518 51.0316156,64.0000501 C51.0316156,56.8203483 56.8482016,51.0000501 64.0233241,51.0000501 C71.1984467,51.0000501 77.0150327,56.8203483 77.0150327,64.0000501 C77.0150327,71.1797518 71.1984467,77.0000501 64.0233241,77.0000501 Z M40.0386314,77.0000501 C28.3048954,77.0067286 17.264434,71.4402989 10.2876188,62.0000501 C12.3081043,55.4703138 18.3369243,51.0136755 25.1681219,51.0000501 L54.7192621,51.0000501 C50.9896158,53.6761817 48.5889464,57.8269059 48.1281167,62.3960489 C47.6672871,66.9651919 49.1907307,71.5121954 52.3107992,74.8800501 C48.3714657,76.2842663 44.2204558,77.0013475 40.0386314,77.0000501 L40.0386314,77.0000501 Z" id="Shape" fill="#0173C1" fill-rule="nonzero"></path>
        <polygon id="Path" fill="#0173C1" fill-rule="nonzero" points="65.34 55.5300501 62.64 55.5300501 62.64 62.6500501 55.52 62.6500501 55.52 65.3500501 62.64 65.3500501 62.64 72.4700501 65.34 72.4700501 65.34 65.3500501 72.46 65.3500501 72.46 62.6500501 65.34 62.6500501 65.34 55.5300501"></polygon>
        <path d="M40,10.8700501 C31.42,10.8700501 24.47,18.6400501 24.47,28.2400501 C24.47,37.8400501 31.47,45.6200501 40,45.6200501 C48.53,45.6200501 55.53,37.8400501 55.53,28.2400501 C55.53,18.6400501 48.57,10.8700501 40,10.8700501 Z M40,42.6200501 C33.09,42.6200501 27.47,36.1700501 27.47,28.2400501 C27.47,20.3100501 33.08,13.8700501 40,13.8700501 C46.92,13.8700501 52.53,20.3100501 52.53,28.2400501 C52.53,36.1700501 46.9,42.6200501 40,42.6200501 Z" id="Shape" fill="#0173C1" fill-rule="nonzero"></path>
    </g>
</svg>