<?xml version="1.0" encoding="UTF-8"?>
<svg width="15px" height="10px" viewBox="0 0 15 10" version="1.1" xmlns="http://www.w3.org/2000/svg" xmlns:xlink="http://www.w3.org/1999/xlink">
    <!-- Generator: Sketch 53.2 (72643) - https://sketchapp.com -->
    <title>Shape</title>
    <desc>Created with Sketch.</desc>
    <g id="Page-1" stroke="none" stroke-width="1" fill="none" fill-rule="evenodd">
        <path d="M7.5,0 C4.09090909,0 1.15909091,2.06666667 0,5 C1.15909091,7.93333333 4.09090909,10 7.5,10 C10.9090909,10 13.8409091,7.93333333 15,5 C13.8409091,2.06666667 10.9090909,0 7.5,0 Z M7.5,8.33333333 C5.59090909,8.33333333 4.09090909,6.86666667 4.09090909,5 C4.09090909,3.13333333 5.59090909,1.66666667 7.5,1.66666667 C9.40909091,1.66666667 10.9090909,3.13333333 10.9090909,5 C10.9090909,6.86666667 9.40909091,8.33333333 7.5,8.33333333 Z M7.5,3 C6.34090909,3 5.45454545,3.86666667 5.45454545,5 C5.45454545,6.13333333 6.34090909,7 7.5,7 C8.65909091,7 9.54545455,6.13333333 9.54545455,5 C9.54545455,3.86666667 8.65909091,3 7.5,3 Z" id="Shape" fill="#FFFFFF" fill-rule="nonzero"></path>
    </g>
</svg>