<?xml version="1.0" encoding="UTF-8"?>
<svg width="16px" height="17px" viewBox="0 0 16 17" version="1.1" xmlns="http://www.w3.org/2000/svg" xmlns:xlink="http://www.w3.org/1999/xlink">
    <!-- Generator: Sketch 53.2 (72643) - https://sketchapp.com -->
    <title>Shape</title>
    <desc>Created with Sketch.</desc>
    <g id="Page-1" stroke="none" stroke-width="1" fill="none" fill-rule="evenodd">
        <path d="M11.3175592,10.5235367 C12.0348692,9.48742217 12.4333748,8.29190535 12.4333748,7.01668742 C12.4333748,3.58953923 9.64383562,0.8 6.21668742,0.8 C2.78953923,0.8 0,3.58953923 0,7.01668742 C0,10.4438356 2.78953923,13.2333748 6.21668742,13.2333748 C7.49190535,13.2333748 8.76712329,12.8348692 9.72353674,12.1175592 L14.3462017,16.7402242 C14.4259029,16.8199253 14.5853051,16.8199253 14.6650062,16.7402242 L15.9402242,15.4650062 C16.0199253,15.3853051 16.0199253,15.2259029 15.9402242,15.1462017 L11.3175592,10.5235367 Z M6.21668742,2.23462017 C8.84682441,2.23462017 10.9190535,4.38655044 10.9190535,6.9369863 C10.9190535,9.56712329 8.76712329,11.6393524 6.21668742,11.6393524 C3.58655044,11.6393524 1.5143213,9.48742217 1.5143213,6.9369863 C1.5143213,4.38655044 3.58655044,2.23462017 6.21668742,2.23462017 Z" id="Shape" fill="#0977C5" fill-rule="nonzero"></path>
    </g>
</svg>